<svg width="454" height="80" viewBox="0 0 454 80" fill="none" xmlns="http://www.w3.org/2000/svg">
<g filter="url(#filter0_i_6_2)">
<path fill-rule="evenodd" clip-rule="evenodd" d="M207.5 59.5L198 68V52.5V39L207.5 2H216.5L236.5 68L226.5 63.5L216.5 52.5H207.5V59.5ZM72 68H93L91.5 52.5L72 50V43.5H91.5V30.5L72 27L68 24H93L91.5 6.50001L55.5 8.5V52.5L60.5 63.5L72 68ZM19 68L5.5 75.5L2.5 8.5C6.37008 8.5 16.7917 9.95806 26.3794 11.2994L26.3794 11.2994L26.3795 11.2995L26.3795 11.2995C34.5463 12.4421 42.1081 13.5 44.5 13.5V32.5L36.5 39L55.5 63.5L51.5 75.5L40 68L33.5 50L19 43.5V68ZM136 68L115 56.5L103.5 75.5L97 56.5L109 43.5L97 15.5L103.5 10L109 27L115 10L140 15.5L126 35.5L145 68H136ZM154 50H165.5L173 52.5L176.5 43.5L154 35.5V24L161.5 10H182L191.5 19.5L186.5 30.5L161.5 27L191.5 43.5L186.5 68H158L154 50ZM243 63.5L256 59.5L251.5 35.5L268 68L275 63.5L280 6.50001L268 10L264.5 30.5L247 6.50001L232 10L236.5 35.5V50L243 63.5ZM313.5 63.5H290.5V30.5V10L320 6.50001C324.167 21 331.7 50 328.5 50C325.3 50 317.167 59 313.5 63.5ZM336 63.5L360.5 68V52.5H347.5V43.5H360.5V35.5L347.5 30.5L344 24H365V6.50001H328.5L332 56.5L336 63.5ZM369.5 59.5V19.5L387 15.5L383 50C387.333 50 400 52.5 400 52.5C400 52.5 401.333 63.6667 400 68L387 75.5C381.167 71.5 369.5 62.7 369.5 59.5ZM404 15.5L409.5 68H451L445 52.5H424V12.5L409.5 10L404 15.5ZM17.5 36V24H32.5L17.5 36ZM209.5 41.5L213 27L219 41.5H209.5ZM301 27V49.5L315.5 44.5V27H301Z" fill="url(#paint0_linear_6_2)"/>
</g>
<path d="M198 68H196.5V71.3549L199 69.1179L198 68ZM207.5 59.5L208.5 60.6179L209 60.1707V59.5H207.5ZM198 39L196.547 38.627L196.5 38.8105V39H198ZM207.5 2V0.5H206.336L206.047 1.62696L207.5 2ZM216.5 2L217.936 1.56499L217.613 0.5H216.5V2ZM236.5 68L235.884 69.3679L238.892 70.7213L237.936 67.565L236.5 68ZM226.5 63.5L225.39 64.509L225.6 64.7399L225.884 64.8679L226.5 63.5ZM216.5 52.5L217.61 51.491L217.164 51H216.5V52.5ZM207.5 52.5V51H206V52.5H207.5ZM93 68V69.5H94.6522L94.493 67.8555L93 68ZM72 68L71.4534 69.3969L71.717 69.5H72V68ZM91.5 52.5L92.993 52.3555L92.8778 51.1644L91.6907 51.0122L91.5 52.5ZM72 50H70.5V51.32L71.8093 51.4878L72 50ZM72 43.5V42H70.5V43.5H72ZM91.5 43.5V45H93V43.5H91.5ZM91.5 30.5H93V29.2453L91.765 29.0236L91.5 30.5ZM72 27L71.1 28.2L71.3847 28.4135L71.735 28.4764L72 27ZM68 24V22.5H63.5L67.1 25.2L68 24ZM93 24V25.5H94.6341L94.4945 23.8719L93 24ZM91.5 6.50001L92.9945 6.37191L92.8702 4.92158L91.4168 5.00232L91.5 6.50001ZM55.5 8.5L55.4168 7.00231L54 7.08102V8.5H55.5ZM55.5 52.5H54V52.8249L54.1345 53.1207L55.5 52.5ZM60.5 63.5L59.1345 64.1207L59.3864 64.675L59.9534 64.8969L60.5 63.5ZM5.5 75.5L4.0015 75.5671L4.10991 77.9882L6.22846 76.8112L5.5 75.5ZM19 68L19.7285 69.3113L20.5 68.8826V68H19ZM2.5 8.5V7H0.931333L1.0015 8.5671L2.5 8.5ZM26.3794 11.2994L26.1715 12.785L26.1767 12.7857L26.3794 11.2994ZM26.3794 11.2994L26.1767 12.7857L26.1851 12.7868L26.1934 12.7879L26.3794 11.2994ZM26.3795 11.2995L26.5873 9.81393L26.5764 9.8124L26.5655 9.81104L26.3795 11.2995ZM44.5 13.5H46V12H44.5V13.5ZM44.5 32.5L45.4459 33.6642L46 33.214V32.5H44.5ZM36.5 39L35.5541 37.8358L34.4161 38.7605L35.3147 39.9192L36.5 39ZM55.5 63.5L56.923 63.9743L57.1765 63.2141L56.6853 62.5808L55.5 63.5ZM51.5 75.5L50.6806 76.7564L52.3085 77.8181L52.923 75.9743L51.5 75.5ZM40 68L38.5892 68.5095L38.7598 68.982L39.1806 69.2564L40 68ZM33.5 50L34.9108 49.4905L34.6946 48.8917L34.1136 48.6313L33.5 50ZM19 43.5L19.6136 42.1313L17.5 41.1838V43.5H19ZM115 56.5L115.72 55.1844L114.461 54.4944L113.717 55.7233L115 56.5ZM136 68L135.28 69.3157L135.616 69.5H136V68ZM103.5 75.5L102.081 75.9855L103.12 79.0242L104.783 76.2767L103.5 75.5ZM97 56.5L95.8978 55.4826L95.2913 56.1396L95.5808 56.9855L97 56.5ZM109 43.5L110.102 44.5174L110.762 43.8029L110.379 42.9091L109 43.5ZM97 15.5L96.0311 14.3549L95.1844 15.0714L95.6213 16.0909L97 15.5ZM103.5 10L104.927 9.53827L104.239 7.41007L102.531 8.85492L103.5 10ZM109 27L107.573 27.4617L108.938 31.682L110.414 27.4992L109 27ZM115 10L115.322 8.53503L114.027 8.25006L113.586 9.50077L115 10ZM140 15.5L141.229 16.3602L142.518 14.5182L140.322 14.035L140 15.5ZM126 35.5L124.771 34.6398L124.22 35.4272L124.705 36.257L126 35.5ZM145 68V69.5H147.614L146.295 67.243L145 68ZM165.5 50L165.974 48.577L165.743 48.5H165.5V50ZM154 50V48.5H152.13L152.536 50.3254L154 50ZM173 52.5L172.526 53.923L173.88 54.3746L174.398 53.0437L173 52.5ZM176.5 43.5L177.898 44.0437L178.458 42.6041L177.003 42.0867L176.5 43.5ZM154 35.5H152.5V36.5587L153.497 36.9133L154 35.5ZM154 24L152.678 23.2917L152.5 23.6235V24H154ZM161.5 10V8.5H160.602L160.178 9.29167L161.5 10ZM182 10L183.061 8.93934L182.621 8.5H182V10ZM191.5 19.5L192.866 20.1207L193.296 19.1744L192.561 18.4393L191.5 19.5ZM186.5 30.5L186.292 31.9855L187.402 32.1409L187.866 31.1207L186.5 30.5ZM161.5 27L161.708 25.5145L160.777 28.3143L161.5 27ZM191.5 43.5L192.97 43.8L193.191 42.7179L192.223 42.1857L191.5 43.5ZM186.5 68V69.5H187.725L187.97 68.3L186.5 68ZM158 68L156.536 68.3254L156.797 69.5H158V68ZM256 59.5L256.441 60.9337L257.721 60.5398L257.474 59.2236L256 59.5ZM243 63.5L241.648 64.1507L242.208 65.3131L243.441 64.9337L243 63.5ZM251.5 35.5L252.838 34.821L250.026 35.7764L251.5 35.5ZM268 68L266.662 68.6791L267.414 70.1598L268.811 69.2618L268 68ZM275 63.5L275.811 64.7618L276.43 64.3639L276.494 63.6311L275 63.5ZM280 6.50001L281.494 6.63109L281.686 4.44578L279.58 5.06001L280 6.50001ZM268 10L267.58 8.56L266.679 8.8227L266.521 9.74756L268 10ZM264.5 30.5L263.288 31.3838L265.381 34.2539L265.979 30.7524L264.5 30.5ZM247 6.50001L248.212 5.61625L247.627 4.8135L246.659 5.03925L247 6.50001ZM232 10L231.659 8.53924L230.276 8.86197L230.523 10.2607L232 10ZM236.5 35.5H238V35.3687L237.977 35.2393L236.5 35.5ZM236.5 50H235V50.3423L235.148 50.6507L236.5 50ZM290.5 63.5H289V65H290.5V63.5ZM313.5 63.5V65H314.213L314.663 64.4475L313.5 63.5ZM290.5 10L290.323 8.51045L289 8.66745V10H290.5ZM320 6.50001L321.442 6.08574L321.09 4.86023L319.823 5.01046L320 6.50001ZM360.5 68L360.229 69.4753L362 69.8006V68H360.5ZM336 63.5L334.698 64.2442L335.043 64.8494L335.729 64.9753L336 63.5ZM360.5 52.5H362V51H360.5V52.5ZM347.5 52.5H346V54H347.5V52.5ZM347.5 43.5V42H346V43.5H347.5ZM360.5 43.5V45H362V43.5H360.5ZM360.5 35.5H362V34.4698L361.038 34.1L360.5 35.5ZM347.5 30.5L346.179 31.2112L346.443 31.7005L346.962 31.9L347.5 30.5ZM344 24V22.5H341.489L342.679 24.7112L344 24ZM365 24V25.5H366.5V24H365ZM365 6.50001H366.5V5.00001H365V6.50001ZM328.5 6.50001V5.00001H326.891L327.004 6.60476L328.5 6.50001ZM332 56.5L330.504 56.6047L330.528 56.9466L330.698 57.2442L332 56.5ZM369.5 19.5L369.166 18.0377L368 18.3042V19.5H369.5ZM387 15.5L388.49 15.6728L388.734 13.5649L386.666 14.0377L387 15.5ZM383 50L381.51 49.8273L381.316 51.5H383V50ZM400 52.5L401.489 52.3222L401.36 51.2395L400.29 51.0284L400 52.5ZM400 68L400.75 69.2993L401.26 69.0047L401.434 68.4411L400 68ZM387 75.5L386.152 76.7371L386.931 77.2715L387.75 76.7993L387 75.5ZM409.5 68L408.008 68.1563L408.149 69.5H409.5V68ZM404 15.5L402.939 14.4393L402.434 14.945L402.508 15.6563L404 15.5ZM451 68V69.5H453.189L452.399 67.4585L451 68ZM445 52.5L446.399 51.9585L446.028 51H445V52.5ZM424 52.5H422.5V54H424V52.5ZM424 12.5H425.5V11.2365L424.255 11.0218L424 12.5ZM409.5 10L409.755 8.52181L408.989 8.38975L408.439 8.93934L409.5 10ZM17.5 24V22.5H16V24H17.5ZM17.5 36H16V39.1209L18.437 37.1713L17.5 36ZM32.5 24L33.437 25.1713L36.7762 22.5H32.5V24ZM213 27L214.386 26.4265L212.623 22.167L211.542 26.648L213 27ZM209.5 41.5L208.042 41.148L207.595 43H209.5V41.5ZM219 41.5V43H221.244L220.386 40.9265L219 41.5ZM301 49.5H299.5V51.6039L301.489 50.9181L301 49.5ZM301 27V25.5H299.5V27H301ZM315.5 44.5L315.989 45.9181L317 45.5694V44.5H315.5ZM315.5 27H317V25.5H315.5V27ZM199 69.1179L208.5 60.6179L206.5 58.3821L197 66.8822L199 69.1179ZM196.5 52.5V68H199.5V52.5H196.5ZM196.5 39V52.5H199.5V39H196.5ZM206.047 1.62696L196.547 38.627L199.453 39.373L208.953 2.37304L206.047 1.62696ZM216.5 0.5H207.5V3.5H216.5V0.5ZM237.936 67.565L217.936 1.56499L215.064 2.43501L235.064 68.435L237.936 67.565ZM225.884 64.8679L235.884 69.3679L237.116 66.6321L227.116 62.1321L225.884 64.8679ZM215.39 53.509L225.39 64.509L227.61 62.491L217.61 51.491L215.39 53.509ZM207.5 54H216.5V51H207.5V54ZM209 59.5V52.5H206V59.5H209ZM93 66.5H72V69.5H93V66.5ZM90.007 52.6445L91.507 68.1445L94.493 67.8555L92.993 52.3555L90.007 52.6445ZM71.8093 51.4878L91.3093 53.9878L91.6907 51.0122L72.1907 48.5122L71.8093 51.4878ZM70.5 43.5V50H73.5V43.5H70.5ZM91.5 42H72V45H91.5V42ZM90 30.5V43.5H93V30.5H90ZM71.735 28.4764L91.235 31.9764L91.765 29.0236L72.265 25.5236L71.735 28.4764ZM67.1 25.2L71.1 28.2L72.9 25.8L68.9 22.8L67.1 25.2ZM93 22.5H68V25.5H93V22.5ZM90.0055 6.62812L91.5055 24.1281L94.4945 23.8719L92.9945 6.37191L90.0055 6.62812ZM55.5832 9.99769L91.5832 7.9977L91.4168 5.00232L55.4168 7.00231L55.5832 9.99769ZM57 52.5V8.5H54V52.5H57ZM61.8655 62.8793L56.8655 51.8793L54.1345 53.1207L59.1345 64.1207L61.8655 62.8793ZM72.5466 66.6032L61.0466 62.1031L59.9534 64.8969L71.4534 69.3969L72.5466 66.6032ZM6.22846 76.8112L19.7285 69.3113L18.2715 66.6888L4.77154 74.1888L6.22846 76.8112ZM1.0015 8.5671L4.0015 75.5671L6.9985 75.4329L3.9985 8.4329L1.0015 8.5671ZM26.5872 9.81391C21.7965 9.14366 16.7818 8.44203 12.4803 7.90812C8.21249 7.37839 4.54463 7 2.5 7V10C4.32545 10 7.80344 10.3506 12.1108 10.8853C16.3846 11.4157 21.3746 12.1138 26.1715 12.785L26.5872 9.81391ZM26.5821 9.8132L26.582 9.8132L26.1767 12.7857L26.1767 12.7857L26.5821 9.8132ZM26.5655 9.81104L26.5655 9.81103L26.1934 12.7879L26.1934 12.7879L26.5655 9.81104ZM26.5655 9.81104L26.5655 9.81104L26.1934 12.7879L26.1934 12.7879L26.5655 9.81104ZM44.5 12C43.419 12 41.0348 11.7513 37.7941 11.3401C34.5954 10.9343 30.6738 10.3857 26.5873 9.81393L26.1717 12.785C30.252 13.3559 34.1947 13.9075 37.4165 14.3163C40.5964 14.7197 43.189 15 44.5 15V12ZM46 32.5V13.5H43V32.5H46ZM37.4459 40.1642L45.4459 33.6642L43.5541 31.3358L35.5541 37.8358L37.4459 40.1642ZM56.6853 62.5808L37.6853 38.0808L35.3147 39.9192L54.3147 64.4192L56.6853 62.5808ZM52.923 75.9743L56.923 63.9743L54.077 63.0257L50.077 75.0257L52.923 75.9743ZM39.1806 69.2564L50.6806 76.7564L52.3194 74.2436L40.8194 66.7436L39.1806 69.2564ZM32.0892 50.5095L38.5892 68.5095L41.4108 67.4905L34.9108 49.4905L32.0892 50.5095ZM18.3864 44.8688L32.8864 51.3688L34.1136 48.6313L19.6136 42.1313L18.3864 44.8688ZM20.5 68V43.5H17.5V68H20.5ZM114.28 57.8156L135.28 69.3157L136.72 66.6844L115.72 55.1844L114.28 57.8156ZM104.783 76.2767L116.283 57.2767L113.717 55.7233L102.217 74.7233L104.783 76.2767ZM95.5808 56.9855L102.081 75.9855L104.919 75.0145L98.4192 56.0145L95.5808 56.9855ZM107.898 42.4826L95.8978 55.4826L98.1022 57.5174L110.102 44.5174L107.898 42.4826ZM95.6213 16.0909L107.621 44.0909L110.379 42.9091L98.3787 14.9091L95.6213 16.0909ZM102.531 8.85492L96.0311 14.3549L97.9689 16.6451L104.469 11.1451L102.531 8.85492ZM110.427 26.5383L104.927 9.53827L102.073 10.4617L107.573 27.4617L110.427 26.5383ZM113.586 9.50077L107.586 26.5008L110.414 27.4992L116.414 10.4992L113.586 9.50077ZM140.322 14.035L115.322 8.53503L114.678 11.465L139.678 16.965L140.322 14.035ZM127.229 36.3602L141.229 16.3602L138.771 14.6398L124.771 34.6398L127.229 36.3602ZM146.295 67.243L127.295 34.743L124.705 36.257L143.705 68.7571L146.295 67.243ZM136 69.5H145V66.5H136V69.5ZM165.5 48.5H154V51.5H165.5V48.5ZM173.474 51.077L165.974 48.577L165.026 51.423L172.526 53.923L173.474 51.077ZM175.102 42.9563L171.602 51.9563L174.398 53.0437L177.898 44.0437L175.102 42.9563ZM153.497 36.9133L175.997 44.9133L177.003 42.0867L154.503 34.0867L153.497 36.9133ZM152.5 24V35.5H155.5V24H152.5ZM160.178 9.29167L152.678 23.2917L155.322 24.7083L162.822 10.7083L160.178 9.29167ZM182 8.5H161.5V11.5H182V8.5ZM192.561 18.4393L183.061 8.93934L180.939 11.0607L190.439 20.5607L192.561 18.4393ZM187.866 31.1207L192.866 20.1207L190.134 18.8793L185.134 29.8793L187.866 31.1207ZM161.292 28.4855L186.292 31.9855L186.708 29.0145L161.708 25.5145L161.292 28.4855ZM192.223 42.1857L162.223 25.6857L160.777 28.3143L190.777 44.8143L192.223 42.1857ZM187.97 68.3L192.97 43.8L190.03 43.2001L185.03 67.7001L187.97 68.3ZM158 69.5H186.5V66.5H158V69.5ZM152.536 50.3254L156.536 68.3254L159.464 67.6746L155.464 49.6746L152.536 50.3254ZM255.559 58.0663L242.559 62.0663L243.441 64.9337L256.441 60.9337L255.559 58.0663ZM250.026 35.7764L254.526 59.7764L257.474 59.2236L252.974 35.2236L250.026 35.7764ZM269.338 67.321L252.838 34.821L250.162 36.179L266.662 68.6791L269.338 67.321ZM274.189 62.2382L267.189 66.7382L268.811 69.2618L275.811 64.7618L274.189 62.2382ZM278.506 6.36894L273.506 63.3689L276.494 63.6311L281.494 6.63109L278.506 6.36894ZM268.42 11.44L280.42 7.94001L279.58 5.06001L267.58 8.56L268.42 11.44ZM265.979 30.7524L269.479 10.2524L266.521 9.74756L263.021 30.2476L265.979 30.7524ZM245.788 7.38377L263.288 31.3838L265.712 29.6162L248.212 5.61625L245.788 7.38377ZM232.341 11.4608L247.341 7.96078L246.659 5.03925L231.659 8.53924L232.341 11.4608ZM237.977 35.2393L233.477 9.73932L230.523 10.2607L235.023 35.7607L237.977 35.2393ZM238 50V35.5H235V50H238ZM244.352 62.8493L237.852 49.3493L235.148 50.6507L241.648 64.1507L244.352 62.8493ZM290.5 65H313.5V62H290.5V65ZM289 30.5V63.5H292V30.5H289ZM289 10V30.5H292V10H289ZM319.823 5.01046L290.323 8.51045L290.677 11.4896L320.177 7.98957L319.823 5.01046ZM328.5 51.5C329.409 51.5 329.996 50.9275 330.29 50.3975C330.552 49.9242 330.661 49.3734 330.715 48.8928C330.826 47.9007 330.762 46.5762 330.599 45.0795C330.268 42.0498 329.482 37.9065 328.477 33.3636C326.464 24.2592 323.53 13.3515 321.442 6.08574L318.558 6.91428C320.637 14.1486 323.553 24.9909 325.548 34.0114C326.547 38.5311 327.305 42.544 327.617 45.4049C327.775 46.8536 327.807 47.908 327.734 48.5584C327.696 48.8991 327.643 48.9855 327.665 48.9441C327.72 48.846 327.991 48.5 328.5 48.5V51.5ZM314.663 64.4475C316.472 62.2273 319.382 58.8984 322.221 56.1378C323.643 54.7546 325.014 53.5463 326.198 52.694C326.791 52.2676 327.305 51.953 327.731 51.7501C328.179 51.5373 328.421 51.5 328.5 51.5V48.5C327.779 48.5 327.067 48.744 326.443 49.041C325.798 49.3479 325.123 49.7715 324.446 50.2592C323.09 51.235 321.599 52.558 320.129 53.9872C317.184 56.8516 314.195 60.2727 312.337 62.5525L314.663 64.4475ZM360.771 66.5247L336.271 62.0247L335.729 64.9753L360.229 69.4753L360.771 66.5247ZM359 52.5V68H362V52.5H359ZM347.5 54H360.5V51H347.5V54ZM346 43.5V52.5H349V43.5H346ZM360.5 42H347.5V45H360.5V42ZM359 35.5V43.5H362V35.5H359ZM346.962 31.9L359.962 36.9L361.038 34.1L348.038 29.1L346.962 31.9ZM342.679 24.7112L346.179 31.2112L348.821 29.7888L345.321 23.2889L342.679 24.7112ZM365 22.5H344V25.5H365V22.5ZM363.5 6.50001V24H366.5V6.50001H363.5ZM328.5 8.00001H365V5.00001H328.5V8.00001ZM333.496 56.3953L329.996 6.39527L327.004 6.60476L330.504 56.6047L333.496 56.3953ZM337.302 62.7558L333.302 55.7558L330.698 57.2442L334.698 64.2442L337.302 62.7558ZM368 19.5V59.5H371V19.5H368ZM386.666 14.0377L369.166 18.0377L369.834 20.9623L387.334 16.9623L386.666 14.0377ZM384.49 50.1728L388.49 15.6728L385.51 15.3272L381.51 49.8273L384.49 50.1728ZM400 52.5C400.29 51.0284 400.29 51.0284 400.29 51.0283C400.29 51.0283 400.29 51.0283 400.29 51.0282C400.289 51.0281 400.289 51.028 400.288 51.0279C400.286 51.0275 400.284 51.0271 400.28 51.0264C400.274 51.0252 400.265 51.0233 400.252 51.0209C400.228 51.0161 400.191 51.009 400.144 50.9997C400.049 50.9812 399.91 50.9541 399.731 50.9197C399.374 50.8508 398.859 50.7526 398.228 50.6349C396.967 50.3994 395.24 50.0852 393.374 49.7709C389.7 49.1517 385.317 48.5 383 48.5V51.5C385.016 51.5 389.133 52.0984 392.876 52.7291C394.719 53.0398 396.428 53.3506 397.678 53.5839C398.302 53.7005 398.811 53.7976 399.163 53.8655C399.34 53.8994 399.477 53.9261 399.569 53.9442C399.616 53.9532 399.651 53.9601 399.675 53.9647C399.686 53.9671 399.695 53.9688 399.701 53.9699C399.704 53.9705 399.706 53.971 399.708 53.9712C399.708 53.9714 399.709 53.9715 399.709 53.9715C399.709 53.9716 399.709 53.9716 399.71 53.9716C399.71 53.9716 399.71 53.9716 400 52.5ZM401.434 68.4411C401.826 67.1648 401.998 65.4946 402.061 63.8066C402.126 62.0905 402.083 60.2409 401.998 58.5501C401.913 56.856 401.787 55.3023 401.681 54.1729C401.628 53.6077 401.581 53.1474 401.546 52.8274C401.529 52.6673 401.515 52.5423 401.505 52.4566C401.5 52.4138 401.496 52.3808 401.494 52.3582C401.492 52.3469 401.491 52.3382 401.491 52.3322C401.49 52.3292 401.49 52.3268 401.49 52.3252C401.49 52.3243 401.49 52.3236 401.49 52.3231C401.49 52.3229 401.489 52.3226 401.489 52.3225C401.489 52.3223 401.489 52.3222 400 52.5C398.511 52.6778 398.511 52.6778 398.511 52.6777C398.511 52.6778 398.511 52.6778 398.511 52.6779C398.511 52.6781 398.511 52.6784 398.511 52.6789C398.511 52.68 398.511 52.6817 398.511 52.684C398.512 52.6888 398.513 52.6961 398.514 52.7061C398.516 52.726 398.52 52.7563 398.524 52.7963C398.533 52.8763 398.547 52.9954 398.563 53.1492C398.597 53.4568 398.643 53.9027 398.694 54.4521C398.797 55.5519 398.92 57.0607 399.002 58.6999C399.084 60.3424 399.124 62.097 399.064 63.6934C399.002 65.3179 398.84 66.6686 398.566 67.5589L401.434 68.4411ZM387.75 76.7993L400.75 69.2993L399.25 66.7007L386.25 74.2007L387.75 76.7993ZM368 59.5C368 60.3076 368.348 61.0794 368.724 61.7098C369.121 62.3761 369.666 63.0764 370.291 63.7822C371.544 65.1968 373.246 66.7743 375.091 68.3427C378.788 71.4867 383.208 74.7185 386.152 76.7371L387.848 74.2629C384.959 72.2815 380.628 69.1133 377.034 66.0573C375.233 64.5257 373.653 63.0532 372.537 61.7928C371.977 61.1611 371.565 60.6177 371.301 60.1746C371.016 59.6956 371 59.4924 371 59.5H368ZM410.992 67.8437L405.492 15.3437L402.508 15.6563L408.008 68.1563L410.992 67.8437ZM451 66.5H409.5V69.5H451V66.5ZM443.601 53.0415L449.601 68.5415L452.399 67.4585L446.399 51.9585L443.601 53.0415ZM424 54H445V51H424V54ZM422.5 12.5V52.5H425.5V12.5H422.5ZM409.245 11.4782L423.745 13.9782L424.255 11.0218L409.755 8.52181L409.245 11.4782ZM405.061 16.5607L410.561 11.0607L408.439 8.93934L402.939 14.4393L405.061 16.5607ZM16 24V36H19V24H16ZM32.5 22.5H17.5V25.5H32.5V22.5ZM18.437 37.1713L33.437 25.1713L31.563 22.8287L16.563 34.8287L18.437 37.1713ZM211.542 26.648L208.042 41.148L210.958 41.852L214.458 27.352L211.542 26.648ZM220.386 40.9265L214.386 26.4265L211.614 27.5735L217.614 42.0735L220.386 40.9265ZM209.5 43H219V40H209.5V43ZM302.5 49.5V27H299.5V49.5H302.5ZM315.011 43.0819L300.511 48.0819L301.489 50.9181L315.989 45.9181L315.011 43.0819ZM314 27V44.5H317V27H314ZM301 28.5H315.5V25.5H301V28.5Z" fill="black"/>
<defs>
<filter id="filter0_i_6_2" x="0.931335" y="0.5" width="452.258" height="78.5242" filterUnits="userSpaceOnUse" color-interpolation-filters="sRGB">
<feFlood flood-opacity="0" result="BackgroundImageFix"/>
<feBlend mode="normal" in="SourceGraphic" in2="BackgroundImageFix" result="shape"/>
<feColorMatrix in="SourceAlpha" type="matrix" values="0 0 0 0 0 0 0 0 0 0 0 0 0 0 0 0 0 0 127 0" result="hardAlpha"/>
<feOffset dy="7"/>
<feComposite in2="hardAlpha" operator="arithmetic" k2="-1" k3="1"/>
<feColorMatrix type="matrix" values="0 0 0 0 1 0 0 0 0 1 0 0 0 0 1 0 0 0 0.5 0"/>
<feBlend mode="normal" in2="shape" result="effect1_innerShadow_6_2"/>
</filter>
<linearGradient id="paint0_linear_6_2" x1="226.75" y1="2" x2="226.75" y2="75.5" gradientUnits="userSpaceOnUse">
<stop offset="0.255208" stop-color="#DE7474"/>
<stop offset="0.333333" stop-color="#74DE7E"/>
<stop offset="0.71875" stop-color="#74C5DE"/>
<stop offset="0.78125" stop-color="#8974DE"/>
</linearGradient>
</defs>
</svg>
