<svg width="531" height="131" viewBox="0 0 531 131" fill="none" xmlns="http://www.w3.org/2000/svg">
<g filter="url(#filter0_i_1_20)">
<path fill-rule="evenodd" clip-rule="evenodd" d="M248.5 59.5L239 68V52.5V39L248.5 2H257.5L277.5 68L267.5 63.5L257.5 52.5H248.5V59.5ZM60 68L46.5 75.5L43 6.50001C46.8701 6.50001 60.6453 9.12452 73.3181 11.539L73.3182 11.539L73.3182 11.539C84.113 13.5957 94.1081 15.5 96.5 15.5L92.5 32.5L77.5 39L96.5 63.5L92.5 75.5L81 68L74.5 50L60 43.5V68ZM96.5 15.5V6.50001H132.5L134 24H109L113 27L132.5 30.5V43.5H113V50L132.5 52.5L134 68H113L105.5 63.5L96.5 52.5V15.5ZM177 68L156 56.5L144.5 75.5L138 56.5L150 43.5L138 15.5L144.5 10L150 27L156 10L181 15.5L167 35.5L186 68H177ZM195 50H206.5L214 52.5L217.5 43.5L195 35.5V24L202.5 10H223L232.5 19.5L227.5 30.5L202.5 27L232.5 43.5L227.5 71.5L199 68L195 50ZM284 63.5L297 59.5L292.5 35.5L309 68L316 63.5L321 6.50001L309 10L305.5 30.5L288 6.50001L273 10L277.5 35.5V50L284 63.5ZM354.5 63.5H331.5V30.5V10L361 6.50001C365.167 21 372.7 50 369.5 50C366.3 50 358.167 59 354.5 63.5ZM377 63.5L401.5 68V52.5H388.5V43.5H401.5V35.5L388.5 30.5L385 24H406V6.50001H369.5L373 56.5L377 63.5ZM410.5 59.5V19.5L428 15.5L424 50C428.333 50 437.8 50.5 441 52.5C444.2 54.5 442.333 63.6667 441 68L428 75.5C422.167 71.5 410.5 62.7 410.5 59.5ZM445 15.5L450.5 68H492L486 52.5H465V12.5L450.5 10L445 15.5ZM58.5 36V24H73.5L58.5 36ZM250.5 41.5L254 27L260 41.5H250.5ZM342 27V49.5L356.5 44.5V27H342Z" fill="url(#paint0_linear_1_20)"/>
</g>
<path d="M239 68H237.5V71.3549L240 69.1179L239 68ZM248.5 59.5L249.5 60.6179L250 60.1707V59.5H248.5ZM239 39L237.547 38.627L237.5 38.8105V39H239ZM248.5 2V0.5H247.336L247.047 1.62696L248.5 2ZM257.5 2L258.936 1.56499L258.613 0.5H257.5V2ZM277.5 68L276.884 69.3679L279.892 70.7213L278.936 67.565L277.5 68ZM267.5 63.5L266.39 64.509L266.6 64.7399L266.884 64.8679L267.5 63.5ZM257.5 52.5L258.61 51.491L258.164 51H257.5V52.5ZM248.5 52.5V51H247V52.5H248.5ZM46.5 75.5L45.0019 75.576L45.1239 77.9804L47.2285 76.8112L46.5 75.5ZM60 68L60.7285 69.3113L61.5 68.8826V68H60ZM43 6.50001V5.00001H41.422L41.5019 6.576L43 6.50001ZM73.3181 11.539L73.0374 13.0125L73.0544 13.0157L73.0715 13.0186L73.3181 11.539ZM73.3182 11.539L73.6554 10.0774L73.6104 10.067L73.5647 10.0594L73.3182 11.539ZM73.3182 11.539L72.9809 13.0006L73.009 13.0071L73.0374 13.0125L73.3182 11.539ZM92.5 32.5L93.0964 33.8763L93.7876 33.5768L93.9601 32.8436L92.5 32.5ZM77.5 39L76.9036 37.6237L75.1303 38.3921L76.3147 39.9192L77.5 39ZM96.5 63.5L97.923 63.9743L98.1765 63.2141L97.6853 62.5808L96.5 63.5ZM92.5 75.5L91.6806 76.7564L93.3085 77.8181L93.923 75.9743L92.5 75.5ZM81 68L79.5892 68.5095L79.7598 68.982L80.1806 69.2564L81 68ZM74.5 50L75.9108 49.4905L75.6946 48.8917L75.1136 48.6313L74.5 50ZM60 43.5L60.6136 42.1313L58.5 41.1838V43.5H60ZM96.5 6.50001V5.00001H95V6.50001H96.5ZM132.5 6.50001L133.995 6.37191L133.877 5.00001H132.5V6.50001ZM134 24V25.5H135.634L135.495 23.8719L134 24ZM109 24V22.5H104.5L108.1 25.2L109 24ZM113 27L112.1 28.2L112.385 28.4135L112.735 28.4764L113 27ZM132.5 30.5H134V29.2453L132.765 29.0236L132.5 30.5ZM132.5 43.5V45H134V43.5H132.5ZM113 43.5V42H111.5V43.5H113ZM113 50H111.5V51.32L112.809 51.4878L113 50ZM132.5 52.5L133.993 52.3555L133.878 51.1644L132.691 51.0122L132.5 52.5ZM134 68V69.5H135.652L135.493 67.8555L134 68ZM113 68L112.228 69.2863L112.585 69.5H113V68ZM105.5 63.5L104.339 64.4499L104.504 64.6519L104.728 64.7862L105.5 63.5ZM96.5 52.5H95V53.0354L95.3391 53.4499L96.5 52.5ZM156 56.5L156.72 55.1844L155.461 54.4944L154.717 55.7233L156 56.5ZM177 68L176.28 69.3157L176.616 69.5H177V68ZM144.5 75.5L143.081 75.9855L144.12 79.0242L145.783 76.2767L144.5 75.5ZM138 56.5L136.898 55.4826L136.291 56.1396L136.581 56.9855L138 56.5ZM150 43.5L151.102 44.5174L151.762 43.8029L151.379 42.9091L150 43.5ZM138 15.5L137.031 14.3549L136.184 15.0714L136.621 16.0909L138 15.5ZM144.5 10L145.927 9.53827L145.239 7.41007L143.531 8.85492L144.5 10ZM150 27L148.573 27.4617L149.938 31.682L151.414 27.4992L150 27ZM156 10L156.322 8.53503L155.027 8.25006L154.586 9.50077L156 10ZM181 15.5L182.229 16.3602L183.518 14.5182L181.322 14.035L181 15.5ZM167 35.5L165.771 34.6398L165.22 35.4272L165.705 36.257L167 35.5ZM186 68V69.5H188.614L187.295 67.243L186 68ZM206.5 50L206.974 48.577L206.743 48.5H206.5V50ZM195 50V48.5H193.13L193.536 50.3254L195 50ZM214 52.5L213.526 53.923L214.88 54.3746L215.398 53.0437L214 52.5ZM217.5 43.5L218.898 44.0437L219.458 42.6041L218.003 42.0867L217.5 43.5ZM195 35.5H193.5V36.5587L194.497 36.9133L195 35.5ZM195 24L193.678 23.2917L193.5 23.6235V24H195ZM202.5 10V8.5H201.602L201.178 9.29167L202.5 10ZM223 10L224.061 8.93934L223.621 8.5H223V10ZM232.5 19.5L233.866 20.1207L234.296 19.1744L233.561 18.4393L232.5 19.5ZM227.5 30.5L227.292 31.9855L228.402 32.1409L228.866 31.1207L227.5 30.5ZM202.5 27L202.708 25.5145L201.777 28.3143L202.5 27ZM232.5 43.5L233.977 43.7637L234.166 42.7043L233.223 42.1857L232.5 43.5ZM227.5 71.5L227.317 72.9888L228.727 73.1619L228.977 71.7637L227.5 71.5ZM199 68L197.536 68.3254L197.766 69.3597L198.817 69.4888L199 68ZM297 59.5L297.441 60.9337L298.721 60.5398L298.474 59.2236L297 59.5ZM284 63.5L282.648 64.1507L283.208 65.3131L284.441 64.9337L284 63.5ZM292.5 35.5L293.838 34.821L291.026 35.7764L292.5 35.5ZM309 68L307.662 68.6791L308.414 70.1598L309.811 69.2618L309 68ZM316 63.5L316.811 64.7618L317.43 64.3639L317.494 63.6311L316 63.5ZM321 6.50001L322.494 6.63109L322.686 4.44578L320.58 5.06001L321 6.50001ZM309 10L308.58 8.56L307.679 8.8227L307.521 9.74756L309 10ZM305.5 30.5L304.288 31.3838L306.381 34.2539L306.979 30.7524L305.5 30.5ZM288 6.50001L289.212 5.61625L288.627 4.8135L287.659 5.03925L288 6.50001ZM273 10L272.659 8.53924L271.276 8.86197L271.523 10.2607L273 10ZM277.5 35.5H279V35.3687L278.977 35.2393L277.5 35.5ZM277.5 50H276V50.3423L276.148 50.6507L277.5 50ZM331.5 63.5H330V65H331.5V63.5ZM354.5 63.5V65H355.213L355.663 64.4475L354.5 63.5ZM331.5 10L331.323 8.51045L330 8.66745V10H331.5ZM361 6.50001L362.442 6.08574L362.09 4.86023L360.823 5.01046L361 6.50001ZM401.5 68L401.229 69.4753L403 69.8006V68H401.5ZM377 63.5L375.698 64.2442L376.043 64.8494L376.729 64.9753L377 63.5ZM401.5 52.5H403V51H401.5V52.5ZM388.5 52.5H387V54H388.5V52.5ZM388.5 43.5V42H387V43.5H388.5ZM401.5 43.5V45H403V43.5H401.5ZM401.5 35.5H403V34.4698L402.038 34.1L401.5 35.5ZM388.5 30.5L387.179 31.2112L387.443 31.7005L387.962 31.9L388.5 30.5ZM385 24V22.5H382.489L383.679 24.7112L385 24ZM406 24V25.5H407.5V24H406ZM406 6.50001H407.5V5.00001H406V6.50001ZM369.5 6.50001V5.00001H367.891L368.004 6.60476L369.5 6.50001ZM373 56.5L371.504 56.6047L371.528 56.9466L371.698 57.2442L373 56.5ZM410.5 19.5L410.166 18.0377L409 18.3042V19.5H410.5ZM428 15.5L429.49 15.6728L429.734 13.5649L427.666 14.0377L428 15.5ZM424 50L422.51 49.8273L422.316 51.5H424V50ZM441 68L441.75 69.2993L442.26 69.0047L442.434 68.4411L441 68ZM428 75.5L427.152 76.7371L427.931 77.2715L428.75 76.7993L428 75.5ZM450.5 68L449.008 68.1563L449.149 69.5H450.5V68ZM445 15.5L443.939 14.4393L443.434 14.945L443.508 15.6563L445 15.5ZM492 68V69.5H494.189L493.399 67.4585L492 68ZM486 52.5L487.399 51.9585L487.028 51H486V52.5ZM465 52.5H463.5V54H465V52.5ZM465 12.5H466.5V11.2365L465.255 11.0218L465 12.5ZM450.5 10L450.755 8.52181L449.989 8.38975L449.439 8.93934L450.5 10ZM58.5 24V22.5H57V24H58.5ZM58.5 36H57V39.1209L59.437 37.1713L58.5 36ZM73.5 24L74.437 25.1713L77.7762 22.5H73.5V24ZM254 27L255.386 26.4265L253.623 22.167L252.542 26.648L254 27ZM250.5 41.5L249.042 41.148L248.595 43H250.5V41.5ZM260 41.5V43H262.244L261.386 40.9265L260 41.5ZM342 49.5H340.5V51.6039L342.489 50.9181L342 49.5ZM342 27V25.5H340.5V27H342ZM356.5 44.5L356.989 45.9181L358 45.5694V44.5H356.5ZM356.5 27H358V25.5H356.5V27ZM240 69.1179L249.5 60.6179L247.5 58.3821L238 66.8822L240 69.1179ZM237.5 52.5V68H240.5V52.5H237.5ZM237.5 39V52.5H240.5V39H237.5ZM247.047 1.62696L237.547 38.627L240.453 39.373L249.953 2.37304L247.047 1.62696ZM257.5 0.5H248.5V3.5H257.5V0.5ZM278.936 67.565L258.936 1.56499L256.064 2.43501L276.064 68.435L278.936 67.565ZM266.884 64.8679L276.884 69.3679L278.116 66.6321L268.116 62.1321L266.884 64.8679ZM256.39 53.509L266.39 64.509L268.61 62.491L258.61 51.491L256.39 53.509ZM248.5 54H257.5V51H248.5V54ZM250 59.5V52.5H247V59.5H250ZM47.2285 76.8112L60.7285 69.3113L59.2715 66.6888L45.7715 74.1888L47.2285 76.8112ZM41.5019 6.576L45.0019 75.576L47.9981 75.424L44.4981 6.42402L41.5019 6.576ZM73.5989 10.0655C67.2659 8.85893 60.6409 7.59668 55.1149 6.63623C49.6541 5.68714 45.0945 5.00001 43 5.00001V8.00001C44.7756 8.00001 49.0386 8.62514 54.6012 9.59192C60.0984 10.5474 66.6975 11.8046 73.0374 13.0125L73.5989 10.0655ZM73.5647 10.0594L73.5647 10.0594L73.0715 13.0186L73.0716 13.0186L73.5647 10.0594ZM73.6555 10.0774L73.6554 10.0774L72.9809 13.0006L72.9809 13.0006L73.6555 10.0774ZM96.5 14C96.0271 14 95.0578 13.8985 93.6036 13.6861C92.1833 13.4786 90.3893 13.1793 88.3213 12.8137C84.1862 12.0826 78.9997 11.0945 73.5989 10.0655L73.0374 13.0125C78.4315 14.0402 83.64 15.0326 87.7991 15.7679C89.8782 16.1354 91.7061 16.4407 93.1699 16.6546C94.5999 16.8635 95.777 17 96.5 17V14ZM93.9601 32.8436L97.9601 15.8436L95.0399 15.1564L91.0399 32.1564L93.9601 32.8436ZM78.0964 40.3763L93.0964 33.8763L91.9036 31.1237L76.9036 37.6237L78.0964 40.3763ZM97.6853 62.5808L78.6853 38.0808L76.3147 39.9192L95.3147 64.4192L97.6853 62.5808ZM93.923 75.9743L97.923 63.9743L95.077 63.0257L91.077 75.0257L93.923 75.9743ZM80.1806 69.2564L91.6806 76.7564L93.3194 74.2436L81.8194 66.7436L80.1806 69.2564ZM73.0892 50.5095L79.5892 68.5095L82.4108 67.4905L75.9108 49.4905L73.0892 50.5095ZM59.3864 44.8688L73.8864 51.3688L75.1136 48.6313L60.6136 42.1313L59.3864 44.8688ZM61.5 68V43.5H58.5V68H61.5ZM95 6.50001V15.5H98V6.50001H95ZM132.5 5.00001H96.5V8.00001H132.5V5.00001ZM135.495 23.8719L133.995 6.37191L131.005 6.62812L132.505 24.1281L135.495 23.8719ZM109 25.5H134V22.5H109V25.5ZM113.9 25.8L109.9 22.8L108.1 25.2L112.1 28.2L113.9 25.8ZM132.765 29.0236L113.265 25.5236L112.735 28.4764L132.235 31.9764L132.765 29.0236ZM134 43.5V30.5H131V43.5H134ZM113 45H132.5V42H113V45ZM114.5 50V43.5H111.5V50H114.5ZM132.691 51.0122L113.191 48.5122L112.809 51.4878L132.309 53.9878L132.691 51.0122ZM135.493 67.8555L133.993 52.3555L131.007 52.6445L132.507 68.1445L135.493 67.8555ZM113 69.5H134V66.5H113V69.5ZM104.728 64.7862L112.228 69.2863L113.772 66.7138L106.272 62.2138L104.728 64.7862ZM95.3391 53.4499L104.339 64.4499L106.661 62.5501L97.6609 51.5501L95.3391 53.4499ZM95 15.5V52.5H98V15.5H95ZM155.28 57.8156L176.28 69.3157L177.72 66.6844L156.72 55.1844L155.28 57.8156ZM145.783 76.2767L157.283 57.2767L154.717 55.7233L143.217 74.7233L145.783 76.2767ZM136.581 56.9855L143.081 75.9855L145.919 75.0145L139.419 56.0145L136.581 56.9855ZM148.898 42.4826L136.898 55.4826L139.102 57.5174L151.102 44.5174L148.898 42.4826ZM136.621 16.0909L148.621 44.0909L151.379 42.9091L139.379 14.9091L136.621 16.0909ZM143.531 8.85492L137.031 14.3549L138.969 16.6451L145.469 11.1451L143.531 8.85492ZM151.427 26.5383L145.927 9.53827L143.073 10.4617L148.573 27.4617L151.427 26.5383ZM154.586 9.50077L148.586 26.5008L151.414 27.4992L157.414 10.4992L154.586 9.50077ZM181.322 14.035L156.322 8.53503L155.678 11.465L180.678 16.965L181.322 14.035ZM168.229 36.3602L182.229 16.3602L179.771 14.6398L165.771 34.6398L168.229 36.3602ZM187.295 67.243L168.295 34.743L165.705 36.257L184.705 68.7571L187.295 67.243ZM177 69.5H186V66.5H177V69.5ZM206.5 48.5H195V51.5H206.5V48.5ZM214.474 51.077L206.974 48.577L206.026 51.423L213.526 53.923L214.474 51.077ZM216.102 42.9563L212.602 51.9563L215.398 53.0437L218.898 44.0437L216.102 42.9563ZM194.497 36.9133L216.997 44.9133L218.003 42.0867L195.503 34.0867L194.497 36.9133ZM193.5 24V35.5H196.5V24H193.5ZM201.178 9.29167L193.678 23.2917L196.322 24.7083L203.822 10.7083L201.178 9.29167ZM223 8.5H202.5V11.5H223V8.5ZM233.561 18.4393L224.061 8.93934L221.939 11.0607L231.439 20.5607L233.561 18.4393ZM228.866 31.1207L233.866 20.1207L231.134 18.8793L226.134 29.8793L228.866 31.1207ZM202.292 28.4855L227.292 31.9855L227.708 29.0145L202.708 25.5145L202.292 28.4855ZM233.223 42.1857L203.223 25.6857L201.777 28.3143L231.777 44.8143L233.223 42.1857ZM228.977 71.7637L233.977 43.7637L231.023 43.2363L226.023 71.2363L228.977 71.7637ZM198.817 69.4888L227.317 72.9888L227.683 70.0112L199.183 66.5112L198.817 69.4888ZM193.536 50.3254L197.536 68.3254L200.464 67.6746L196.464 49.6746L193.536 50.3254ZM296.559 58.0663L283.559 62.0663L284.441 64.9337L297.441 60.9337L296.559 58.0663ZM291.026 35.7764L295.526 59.7764L298.474 59.2236L293.974 35.2236L291.026 35.7764ZM310.338 67.321L293.838 34.821L291.162 36.179L307.662 68.6791L310.338 67.321ZM315.189 62.2382L308.189 66.7382L309.811 69.2618L316.811 64.7618L315.189 62.2382ZM319.506 6.36894L314.506 63.3689L317.494 63.6311L322.494 6.63109L319.506 6.36894ZM309.42 11.44L321.42 7.94001L320.58 5.06001L308.58 8.56L309.42 11.44ZM306.979 30.7524L310.479 10.2524L307.521 9.74756L304.021 30.2476L306.979 30.7524ZM286.788 7.38377L304.288 31.3838L306.712 29.6162L289.212 5.61625L286.788 7.38377ZM273.341 11.4608L288.341 7.96078L287.659 5.03925L272.659 8.53924L273.341 11.4608ZM278.977 35.2393L274.477 9.73932L271.523 10.2607L276.023 35.7607L278.977 35.2393ZM279 50V35.5H276V50H279ZM285.352 62.8493L278.852 49.3493L276.148 50.6507L282.648 64.1507L285.352 62.8493ZM331.5 65H354.5V62H331.5V65ZM330 30.5V63.5H333V30.5H330ZM330 10V30.5H333V10H330ZM360.823 5.01046L331.323 8.51045L331.677 11.4896L361.177 7.98957L360.823 5.01046ZM369.5 51.5C370.409 51.5 370.996 50.9275 371.29 50.3975C371.552 49.9242 371.661 49.3734 371.715 48.8928C371.826 47.9007 371.762 46.5762 371.599 45.0795C371.268 42.0498 370.482 37.9065 369.477 33.3636C367.464 24.2592 364.53 13.3515 362.442 6.08574L359.558 6.91428C361.637 14.1486 364.553 24.9909 366.548 34.0114C367.547 38.5311 368.305 42.544 368.617 45.4049C368.775 46.8536 368.807 47.908 368.734 48.5584C368.696 48.8991 368.643 48.9855 368.665 48.9441C368.72 48.846 368.991 48.5 369.5 48.5V51.5ZM355.663 64.4475C357.472 62.2273 360.382 58.8984 363.221 56.1378C364.643 54.7546 366.014 53.5463 367.198 52.694C367.791 52.2676 368.305 51.953 368.731 51.7501C369.179 51.5373 369.421 51.5 369.5 51.5V48.5C368.779 48.5 368.067 48.744 367.443 49.041C366.798 49.3479 366.123 49.7715 365.446 50.2592C364.09 51.235 362.599 52.558 361.129 53.9872C358.184 56.8516 355.195 60.2727 353.337 62.5525L355.663 64.4475ZM401.771 66.5247L377.271 62.0247L376.729 64.9753L401.229 69.4753L401.771 66.5247ZM400 52.5V68H403V52.5H400ZM388.5 54H401.5V51H388.5V54ZM387 43.5V52.5H390V43.5H387ZM401.5 42H388.5V45H401.5V42ZM400 35.5V43.5H403V35.5H400ZM387.962 31.9L400.962 36.9L402.038 34.1L389.038 29.1L387.962 31.9ZM383.679 24.7112L387.179 31.2112L389.821 29.7888L386.321 23.2889L383.679 24.7112ZM406 22.5H385V25.5H406V22.5ZM404.5 6.50001V24H407.5V6.50001H404.5ZM369.5 8.00001H406V5.00001H369.5V8.00001ZM374.496 56.3953L370.996 6.39527L368.004 6.60476L371.504 56.6047L374.496 56.3953ZM378.302 62.7558L374.302 55.7558L371.698 57.2442L375.698 64.2442L378.302 62.7558ZM409 19.5V59.5H412V19.5H409ZM427.666 14.0377L410.166 18.0377L410.834 20.9623L428.334 16.9623L427.666 14.0377ZM425.49 50.1728L429.49 15.6728L426.51 15.3272L422.51 49.8273L425.49 50.1728ZM441.795 51.228C440.781 50.5945 439.395 50.1437 437.944 49.8049C436.462 49.4589 434.782 49.2008 433.094 49.0096C429.718 48.6269 426.211 48.5 424 48.5V51.5C426.123 51.5 429.515 51.6231 432.756 51.9905C434.377 52.1742 435.933 52.4161 437.262 52.7263C438.622 53.0438 439.619 53.4055 440.205 53.772L441.795 51.228ZM442.434 68.4411C443.121 66.2061 443.951 62.7167 444.196 59.4882C444.317 57.8793 444.301 56.252 444.005 54.8475C443.716 53.474 443.102 52.0446 441.795 51.228L440.205 53.772C440.498 53.9554 440.85 54.4219 441.07 55.465C441.283 56.4771 441.316 57.7874 441.204 59.2618C440.982 62.2 440.212 65.4606 439.566 67.5589L442.434 68.4411ZM428.75 76.7993L441.75 69.2993L440.25 66.7007L427.25 74.2007L428.75 76.7993ZM409 59.5C409 60.3076 409.348 61.0794 409.724 61.7098C410.121 62.3761 410.666 63.0764 411.291 63.7822C412.544 65.1968 414.246 66.7743 416.091 68.3427C419.788 71.4867 424.208 74.7185 427.152 76.7371L428.848 74.2629C425.959 72.2815 421.628 69.1133 418.034 66.0573C416.233 64.5257 414.653 63.0532 413.537 61.7928C412.977 61.1611 412.565 60.6177 412.301 60.1746C412.016 59.6956 412 59.4924 412 59.5H409ZM451.992 67.8437L446.492 15.3437L443.508 15.6563L449.008 68.1563L451.992 67.8437ZM492 66.5H450.5V69.5H492V66.5ZM484.601 53.0415L490.601 68.5415L493.399 67.4585L487.399 51.9585L484.601 53.0415ZM465 54H486V51H465V54ZM463.5 12.5V52.5H466.5V12.5H463.5ZM450.245 11.4782L464.745 13.9782L465.255 11.0218L450.755 8.52181L450.245 11.4782ZM446.061 16.5607L451.561 11.0607L449.439 8.93934L443.939 14.4393L446.061 16.5607ZM57 24V36H60V24H57ZM73.5 22.5H58.5V25.5H73.5V22.5ZM59.437 37.1713L74.437 25.1713L72.563 22.8287L57.563 34.8287L59.437 37.1713ZM252.542 26.648L249.042 41.148L251.958 41.852L255.458 27.352L252.542 26.648ZM261.386 40.9265L255.386 26.4265L252.614 27.5735L258.614 42.0735L261.386 40.9265ZM250.5 43H260V40H250.5V43ZM343.5 49.5V27H340.5V49.5H343.5ZM356.011 43.0819L341.511 48.0819L342.489 50.9181L356.989 45.9181L356.011 43.0819ZM355 27V44.5H358V27H355ZM342 28.5H356.5V25.5H342V28.5Z" fill="black"/>
<path d="M10.4673 122L4.10369 98.7273H6.96733L11.831 117.682H12.0582L17.0128 98.7273H20.1946L25.1491 117.682H25.3764L30.2401 98.7273H33.1037L26.7401 122H23.831L18.6946 103.455H18.5128L13.3764 122H10.4673ZM36.6151 122V98.7273H50.6605V101.227H39.4332V109.091H49.9332V111.591H39.4332V119.5H50.8423V122H36.6151ZM55.7401 122V98.7273H63.8764C65.4976 98.7273 66.8348 99.0076 67.8878 99.5682C68.9408 100.121 69.7249 100.867 70.2401 101.807C70.7552 102.739 71.0128 103.773 71.0128 104.909C71.0128 105.909 70.8348 106.735 70.4787 107.386C70.1302 108.038 69.6681 108.553 69.0923 108.932C68.5241 109.311 67.9067 109.591 67.2401 109.773V110C67.9522 110.045 68.6681 110.295 69.3878 110.75C70.1075 111.205 70.7098 111.856 71.1946 112.705C71.6795 113.553 71.9219 114.591 71.9219 115.818C71.9219 116.985 71.6567 118.034 71.1264 118.966C70.5961 119.898 69.759 120.636 68.6151 121.182C67.4711 121.727 65.9825 122 64.1491 122H55.7401ZM58.5582 119.5H64.1491C65.9901 119.5 67.2969 119.144 68.0696 118.432C68.8499 117.712 69.2401 116.841 69.2401 115.818C69.2401 115.03 69.0393 114.303 68.6378 113.636C68.2363 112.962 67.6643 112.424 66.9219 112.023C66.1795 111.614 65.3007 111.409 64.2855 111.409H58.5582V119.5ZM58.5582 108.955H63.7855C64.634 108.955 65.3991 108.788 66.081 108.455C66.7704 108.121 67.3158 107.652 67.7173 107.045C68.1264 106.439 68.331 105.727 68.331 104.909C68.331 103.886 67.9749 103.019 67.2628 102.307C66.5507 101.587 65.4219 101.227 63.8764 101.227H58.5582V108.955ZM86.5071 122H83.5526L92.098 98.7273H95.0071L103.553 122H100.598L93.6435 102.409H93.4616L86.5071 122ZM87.598 112.909H99.5071V115.409H87.598V112.909ZM125.632 98.7273V122H122.905L110.223 103.727H109.996V122H107.178V98.7273H109.905L122.632 117.045H122.859V98.7273H125.632ZM138.453 122H131.271V98.7273H138.771C141.029 98.7273 142.961 99.1932 144.567 100.125C146.173 101.049 147.404 102.379 148.26 104.114C149.116 105.841 149.544 107.909 149.544 110.318C149.544 112.742 149.112 114.83 148.249 116.58C147.385 118.322 146.127 119.663 144.476 120.602C142.824 121.534 140.817 122 138.453 122ZM134.089 119.5H138.271C140.196 119.5 141.79 119.129 143.055 118.386C144.321 117.644 145.264 116.587 145.885 115.216C146.506 113.845 146.817 112.212 146.817 110.318C146.817 108.439 146.51 106.822 145.896 105.466C145.283 104.102 144.366 103.057 143.146 102.33C141.927 101.595 140.408 101.227 138.589 101.227H134.089V119.5ZM175.999 104.545C175.862 103.394 175.309 102.5 174.339 101.864C173.37 101.227 172.18 100.909 170.771 100.909C169.741 100.909 168.839 101.076 168.067 101.409C167.302 101.742 166.703 102.201 166.271 102.784C165.847 103.367 165.635 104.03 165.635 104.773C165.635 105.394 165.783 105.928 166.078 106.375C166.381 106.814 166.768 107.182 167.237 107.477C167.707 107.765 168.199 108.004 168.714 108.193C169.23 108.375 169.703 108.523 170.135 108.636L172.499 109.273C173.105 109.432 173.779 109.652 174.521 109.932C175.271 110.212 175.987 110.595 176.669 111.08C177.358 111.557 177.927 112.17 178.374 112.92C178.821 113.67 179.044 114.591 179.044 115.682C179.044 116.939 178.714 118.076 178.055 119.091C177.404 120.106 176.449 120.913 175.192 121.511C173.942 122.11 172.423 122.409 170.635 122.409C168.968 122.409 167.525 122.14 166.305 121.602C165.093 121.064 164.139 120.314 163.442 119.352C162.752 118.39 162.362 117.273 162.271 116H165.18C165.256 116.879 165.552 117.606 166.067 118.182C166.589 118.75 167.249 119.174 168.044 119.455C168.847 119.727 169.711 119.864 170.635 119.864C171.711 119.864 172.677 119.689 173.533 119.341C174.389 118.985 175.067 118.492 175.567 117.864C176.067 117.227 176.317 116.485 176.317 115.636C176.317 114.864 176.101 114.235 175.669 113.75C175.237 113.265 174.669 112.871 173.964 112.568C173.26 112.265 172.499 112 171.68 111.773L168.817 110.955C166.999 110.432 165.559 109.686 164.499 108.716C163.438 107.746 162.908 106.477 162.908 104.909C162.908 103.606 163.26 102.47 163.964 101.5C164.677 100.523 165.631 99.7652 166.828 99.2273C168.033 98.6818 169.377 98.4091 170.862 98.4091C172.362 98.4091 173.696 98.678 174.862 99.2159C176.029 99.7462 176.953 100.473 177.635 101.398C178.324 102.322 178.688 103.371 178.726 104.545H175.999ZM203.314 110.364C203.314 112.818 202.871 114.939 201.984 116.727C201.098 118.515 199.882 119.894 198.337 120.864C196.791 121.833 195.026 122.318 193.041 122.318C191.056 122.318 189.291 121.833 187.746 120.864C186.2 119.894 184.984 118.515 184.098 116.727C183.212 114.939 182.768 112.818 182.768 110.364C182.768 107.909 183.212 105.788 184.098 104C184.984 102.212 186.2 100.833 187.746 99.8636C189.291 98.8939 191.056 98.4091 193.041 98.4091C195.026 98.4091 196.791 98.8939 198.337 99.8636C199.882 100.833 201.098 102.212 201.984 104C202.871 105.788 203.314 107.909 203.314 110.364ZM200.587 110.364C200.587 108.348 200.25 106.648 199.575 105.261C198.909 103.875 198.003 102.826 196.859 102.114C195.723 101.402 194.45 101.045 193.041 101.045C191.632 101.045 190.356 101.402 189.212 102.114C188.075 102.826 187.17 103.875 186.496 105.261C185.829 106.648 185.496 108.348 185.496 110.364C185.496 112.379 185.829 114.08 186.496 115.466C187.17 116.852 188.075 117.902 189.212 118.614C190.356 119.326 191.632 119.682 193.041 119.682C194.45 119.682 195.723 119.326 196.859 118.614C198.003 117.902 198.909 116.852 199.575 115.466C200.25 114.08 200.587 112.379 200.587 110.364ZM208.053 122V98.7273H222.007V101.227H210.871V109.091H220.962V111.591H210.871V122H208.053ZM225.561 101.227V98.7273H243.016V101.227H235.697V122H232.879V101.227H225.561ZM251.592 122L245.229 98.7273H248.092L252.956 117.682H253.183L258.138 98.7273H261.32L266.274 117.682H266.501L271.365 98.7273H274.229L267.865 122H264.956L259.82 103.455H259.638L254.501 122H251.592ZM276.882 122H273.928L282.473 98.7273H285.382L293.928 122H290.973L284.018 102.409H283.837L276.882 122ZM277.973 112.909H289.882V115.409H277.973V112.909ZM297.553 122V98.7273H305.416C307.234 98.7273 308.727 99.0379 309.893 99.6591C311.06 100.273 311.924 101.117 312.484 102.193C313.045 103.269 313.325 104.492 313.325 105.864C313.325 107.235 313.045 108.451 312.484 109.511C311.924 110.572 311.064 111.405 309.905 112.011C308.746 112.61 307.265 112.909 305.462 112.909H299.098V110.364H305.371C306.613 110.364 307.613 110.182 308.371 109.818C309.136 109.455 309.689 108.939 310.03 108.273C310.378 107.598 310.553 106.795 310.553 105.864C310.553 104.932 310.378 104.117 310.03 103.42C309.681 102.723 309.125 102.186 308.359 101.807C307.594 101.42 306.583 101.227 305.325 101.227H300.371V122H297.553ZM308.507 111.545L314.234 122H310.962L305.325 111.545H308.507ZM318.021 122V98.7273H332.067V101.227H320.839V109.091H331.339V111.591H320.839V119.5H332.249V122H318.021ZM353.328 122H346.146V98.7273H353.646C355.904 98.7273 357.836 99.1932 359.442 100.125C361.048 101.049 362.279 102.379 363.135 104.114C363.991 105.841 364.419 107.909 364.419 110.318C364.419 112.742 363.987 114.83 363.124 116.58C362.26 118.322 361.002 119.663 359.351 120.602C357.699 121.534 355.692 122 353.328 122ZM348.964 119.5H353.146C355.071 119.5 356.665 119.129 357.93 118.386C359.196 117.644 360.139 116.587 360.76 115.216C361.381 113.845 361.692 112.212 361.692 110.318C361.692 108.439 361.385 106.822 360.771 105.466C360.158 104.102 359.241 103.057 358.021 102.33C356.802 101.595 355.283 101.227 353.464 101.227H348.964V119.5ZM369.146 122V98.7273H383.192V101.227H371.964V109.091H382.464V111.591H371.964V119.5H383.374V122H369.146ZM389.226 98.7273L396.135 118.318H396.408L403.317 98.7273H406.271L397.726 122H394.817L386.271 98.7273H389.226ZM409.896 122V98.7273H423.942V101.227H412.714V109.091H423.214V111.591H412.714V119.5H424.124V122H409.896ZM429.021 122V98.7273H431.839V119.5H442.658V122H429.021ZM465.751 110.364C465.751 112.818 465.308 114.939 464.422 116.727C463.536 118.515 462.32 119.894 460.774 120.864C459.229 121.833 457.464 122.318 455.479 122.318C453.494 122.318 451.729 121.833 450.183 120.864C448.638 119.894 447.422 118.515 446.536 116.727C445.649 114.939 445.206 112.818 445.206 110.364C445.206 107.909 445.649 105.788 446.536 104C447.422 102.212 448.638 100.833 450.183 99.8636C451.729 98.8939 453.494 98.4091 455.479 98.4091C457.464 98.4091 459.229 98.8939 460.774 99.8636C462.32 100.833 463.536 102.212 464.422 104C465.308 105.788 465.751 107.909 465.751 110.364ZM463.024 110.364C463.024 108.348 462.687 106.648 462.013 105.261C461.346 103.875 460.441 102.826 459.297 102.114C458.161 101.402 456.888 101.045 455.479 101.045C454.07 101.045 452.793 101.402 451.649 102.114C450.513 102.826 449.607 103.875 448.933 105.261C448.267 106.648 447.933 108.348 447.933 110.364C447.933 112.379 448.267 114.08 448.933 115.466C449.607 116.852 450.513 117.902 451.649 118.614C452.793 119.326 454.07 119.682 455.479 119.682C456.888 119.682 458.161 119.326 459.297 118.614C460.441 117.902 461.346 116.852 462.013 115.466C462.687 114.08 463.024 112.379 463.024 110.364ZM470.49 122V98.7273H478.354C480.179 98.7273 481.672 99.0568 482.831 99.7159C483.998 100.367 484.861 101.25 485.422 102.364C485.982 103.477 486.263 104.72 486.263 106.091C486.263 107.462 485.982 108.708 485.422 109.83C484.869 110.951 484.013 111.845 482.854 112.511C481.695 113.17 480.21 113.5 478.399 113.5H472.763V111H478.308C479.558 111 480.562 110.784 481.32 110.352C482.077 109.92 482.626 109.337 482.967 108.602C483.316 107.86 483.49 107.023 483.49 106.091C483.49 105.159 483.316 104.326 482.967 103.591C482.626 102.856 482.073 102.28 481.308 101.864C480.543 101.439 479.528 101.227 478.263 101.227H473.308V122H470.49ZM490.803 122V98.7273H504.848V101.227H493.621V109.091H504.121V111.591H493.621V119.5H505.03V122H490.803ZM509.928 122V98.7273H517.791C519.609 98.7273 521.102 99.0379 522.268 99.6591C523.435 100.273 524.299 101.117 524.859 102.193C525.42 103.269 525.7 104.492 525.7 105.864C525.7 107.235 525.42 108.451 524.859 109.511C524.299 110.572 523.439 111.405 522.28 112.011C521.121 112.61 519.64 112.909 517.837 112.909H511.473V110.364H517.746C518.988 110.364 519.988 110.182 520.746 109.818C521.511 109.455 522.064 108.939 522.405 108.273C522.753 107.598 522.928 106.795 522.928 105.864C522.928 104.932 522.753 104.117 522.405 103.42C522.056 102.723 521.5 102.186 520.734 101.807C519.969 101.42 518.958 101.227 517.7 101.227H512.746V122H509.928ZM520.882 111.545L526.609 122H523.337L517.7 111.545H520.882Z" fill="black"/>
<path d="M10.4673 122L9.50274 122.264L9.70406 123H10.4673V122ZM4.10369 98.7273V97.7273H2.79355L3.1391 98.991L4.10369 98.7273ZM6.96733 98.7273L7.93595 98.4787L7.74313 97.7273H6.96733V98.7273ZM11.831 117.682L10.8623 117.93L11.0552 118.682H11.831V117.682ZM12.0582 117.682V118.682H12.8304L13.0257 117.935L12.0582 117.682ZM17.0128 98.7273V97.7273H16.2406L16.0453 98.4744L17.0128 98.7273ZM20.1946 98.7273L21.1621 98.4744L20.9668 97.7273H20.1946V98.7273ZM25.1491 117.682L24.1817 117.935L24.3769 118.682H25.1491V117.682ZM25.3764 117.682V118.682H26.1522L26.345 117.93L25.3764 117.682ZM30.2401 98.7273V97.7273H29.4643L29.2714 98.4787L30.2401 98.7273ZM33.1037 98.7273L34.0683 98.991L34.4138 97.7273H33.1037V98.7273ZM26.7401 122V123H27.5033L27.7046 122.264L26.7401 122ZM23.831 122L22.8672 122.267L23.0703 123H23.831V122ZM18.6946 103.455L19.6583 103.188L19.4553 102.455H18.6946V103.455ZM18.5128 103.455V102.455H17.7521L17.5491 103.188L18.5128 103.455ZM13.3764 122V123H14.1371L14.3401 122.267L13.3764 122ZM11.4319 121.736L5.06828 98.4635L3.1391 98.991L9.50274 122.264L11.4319 121.736ZM4.10369 99.7273H6.96733V97.7273H4.10369V99.7273ZM5.99871 98.9758L10.8623 117.93L12.7996 117.433L7.93595 98.4787L5.99871 98.9758ZM11.831 118.682H12.0582V116.682H11.831V118.682ZM13.0257 117.935L17.9803 98.9802L16.0453 98.4744L11.0907 117.429L13.0257 117.935ZM17.0128 99.7273H20.1946V97.7273H17.0128V99.7273ZM19.2271 98.9802L24.1817 117.935L26.1166 117.429L21.1621 98.4744L19.2271 98.9802ZM25.1491 118.682H25.3764V116.682H25.1491V118.682ZM26.345 117.93L31.2087 98.9758L29.2714 98.4787L24.4078 117.433L26.345 117.93ZM30.2401 99.7273H33.1037V97.7273H30.2401V99.7273ZM32.1391 98.4635L25.7755 121.736L27.7046 122.264L34.0683 98.991L32.1391 98.4635ZM26.7401 121H23.831V123H26.7401V121ZM24.7947 121.733L19.6583 103.188L17.7309 103.721L22.8672 122.267L24.7947 121.733ZM18.6946 102.455H18.5128V104.455H18.6946V102.455ZM17.5491 103.188L12.4127 121.733L14.3401 122.267L19.4765 103.721L17.5491 103.188ZM13.3764 121H10.4673V123H13.3764V121ZM36.6151 122H35.6151V123H36.6151V122ZM36.6151 98.7273V97.7273H35.6151V98.7273H36.6151ZM50.6605 98.7273H51.6605V97.7273H50.6605V98.7273ZM50.6605 101.227V102.227H51.6605V101.227H50.6605ZM39.4332 101.227V100.227H38.4332V101.227H39.4332ZM39.4332 109.091H38.4332V110.091H39.4332V109.091ZM49.9332 109.091H50.9332V108.091H49.9332V109.091ZM49.9332 111.591V112.591H50.9332V111.591H49.9332ZM39.4332 111.591V110.591H38.4332V111.591H39.4332ZM39.4332 119.5H38.4332V120.5H39.4332V119.5ZM50.8423 119.5H51.8423V118.5H50.8423V119.5ZM50.8423 122V123H51.8423V122H50.8423ZM37.6151 122V98.7273H35.6151V122H37.6151ZM36.6151 99.7273H50.6605V97.7273H36.6151V99.7273ZM49.6605 98.7273V101.227H51.6605V98.7273H49.6605ZM50.6605 100.227H39.4332V102.227H50.6605V100.227ZM38.4332 101.227V109.091H40.4332V101.227H38.4332ZM39.4332 110.091H49.9332V108.091H39.4332V110.091ZM48.9332 109.091V111.591H50.9332V109.091H48.9332ZM49.9332 110.591H39.4332V112.591H49.9332V110.591ZM38.4332 111.591V119.5H40.4332V111.591H38.4332ZM39.4332 120.5H50.8423V118.5H39.4332V120.5ZM49.8423 119.5V122H51.8423V119.5H49.8423ZM50.8423 121H36.6151V123H50.8423V121ZM55.7401 122H54.7401V123H55.7401V122ZM55.7401 98.7273V97.7273H54.7401V98.7273H55.7401ZM67.8878 99.5682L67.4178 100.451L67.4228 100.454L67.8878 99.5682ZM70.2401 101.807L69.3632 102.288L69.3649 102.291L70.2401 101.807ZM70.4787 107.386L69.6012 106.907L69.5969 106.915L70.4787 107.386ZM69.0923 108.932L68.5427 108.096L68.5376 108.1L69.0923 108.932ZM67.2401 109.773L66.9769 108.808L66.2401 109.009V109.773H67.2401ZM67.2401 110H66.2401V110.938L67.1764 110.998L67.2401 110ZM69.3878 110.75L68.8538 111.595L68.8538 111.595L69.3878 110.75ZM71.1264 118.966L71.9955 119.461L71.9955 119.461L71.1264 118.966ZM68.6151 121.182L68.1847 120.279L68.1847 120.279L68.6151 121.182ZM58.5582 119.5H57.5582V120.5H58.5582V119.5ZM68.0696 118.432L68.7473 119.167L68.7476 119.167L68.0696 118.432ZM68.6378 113.636L67.7786 114.148L67.7812 114.152L68.6378 113.636ZM66.9219 112.023L66.4393 112.899L66.4462 112.902L66.9219 112.023ZM58.5582 111.409V110.409H57.5582V111.409H58.5582ZM58.5582 108.955H57.5582V109.955H58.5582V108.955ZM66.081 108.455L65.6457 107.554L65.6418 107.556L66.081 108.455ZM67.7173 107.045L66.8885 106.486L66.8837 106.493L67.7173 107.045ZM67.2628 102.307L66.5519 103.01L66.5557 103.014L67.2628 102.307ZM58.5582 101.227V100.227H57.5582V101.227H58.5582ZM56.7401 122V98.7273H54.7401V122H56.7401ZM55.7401 99.7273H63.8764V97.7273H55.7401V99.7273ZM63.8764 99.7273C65.3899 99.7273 66.552 99.9899 67.4179 100.451L68.3577 98.6855C67.1175 98.0252 65.6054 97.7273 63.8764 97.7273V99.7273ZM67.4228 100.454C68.3217 100.926 68.9529 101.539 69.3632 102.288L71.1169 101.326C70.4969 100.195 69.5599 99.3168 68.3527 98.6828L67.4228 100.454ZM69.3649 102.291C69.7927 103.064 70.0128 103.93 70.0128 104.909H72.0128C72.0128 103.615 71.7178 102.413 71.1152 101.323L69.3649 102.291ZM70.0128 104.909C70.0128 105.797 69.8538 106.445 69.6012 106.907L71.3562 107.866C71.8157 107.025 72.0128 106.021 72.0128 104.909H70.0128ZM69.5969 106.915C69.3212 107.43 68.9692 107.816 68.5427 108.096L69.6419 109.767C70.367 109.29 70.9392 108.646 71.3605 107.858L69.5969 106.915ZM68.5376 108.1C68.06 108.418 67.5412 108.654 66.9769 108.808L67.5032 110.737C68.2723 110.528 68.9883 110.203 69.647 109.764L68.5376 108.1ZM66.2401 109.773V110H68.2401V109.773H66.2401ZM67.1764 110.998C67.692 111.031 68.2484 111.213 68.8538 111.595L69.9218 109.905C69.0878 109.378 68.2124 109.06 67.3038 109.002L67.1764 110.998ZM68.8538 111.595C69.4159 111.951 69.9106 112.473 70.3264 113.201L72.0628 112.208C71.5089 111.239 70.799 110.459 69.9218 109.905L68.8538 111.595ZM70.3264 113.201C70.7054 113.864 70.9219 114.721 70.9219 115.818H72.9219C72.9219 114.461 72.6535 113.242 72.0628 112.208L70.3264 113.201ZM70.9219 115.818C70.9219 116.827 70.6944 117.703 70.2573 118.471L71.9955 119.461C72.6191 118.365 72.9219 117.143 72.9219 115.818H70.9219ZM70.2573 118.471C69.8455 119.195 69.1785 119.805 68.1847 120.279L69.0455 122.084C70.3395 121.467 71.3468 120.6 71.9955 119.461L70.2573 118.471ZM68.1847 120.279C67.2214 120.738 65.8951 121 64.1491 121V123C66.0699 123 67.7208 122.716 69.0455 122.084L68.1847 120.279ZM64.1491 121H55.7401V123H64.1491V121ZM58.5582 120.5H64.1491V118.5H58.5582V120.5ZM64.1491 120.5C66.0686 120.5 67.6934 120.138 68.7473 119.167L67.3919 117.696C66.9003 118.15 65.9115 118.5 64.1491 118.5V120.5ZM68.7476 119.167C69.7243 118.266 70.2401 117.132 70.2401 115.818H68.2401C68.2401 116.55 67.9755 117.158 67.3916 117.697L68.7476 119.167ZM70.2401 115.818C70.2401 114.851 69.991 113.945 69.4944 113.12L67.7812 114.152C68.0876 114.661 68.2401 115.21 68.2401 115.818H70.2401ZM69.497 113.125C68.9962 112.284 68.2863 111.624 67.3976 111.143L66.4462 112.902C67.0423 113.225 67.4764 113.64 67.7786 114.148L69.497 113.125ZM67.4045 111.147C66.4876 110.642 65.4362 110.409 64.2855 110.409V112.409C65.1652 112.409 65.8713 112.586 66.4393 112.899L67.4045 111.147ZM64.2855 110.409H58.5582V112.409H64.2855V110.409ZM57.5582 111.409V119.5H59.5582V111.409H57.5582ZM58.5582 109.955H63.7855V107.955H58.5582V109.955ZM63.7855 109.955C64.7681 109.955 65.6862 109.761 66.5202 109.353L65.6418 107.556C65.1121 107.815 64.4999 107.955 63.7855 107.955V109.955ZM66.5163 109.355C67.3583 108.948 68.045 108.362 68.551 107.598L66.8837 106.493C66.5867 106.941 66.1824 107.295 65.6457 107.554L66.5163 109.355ZM68.5462 107.605C69.0798 106.814 69.331 105.902 69.331 104.909H67.331C67.331 105.553 67.173 106.064 66.8885 106.486L68.5462 107.605ZM69.331 104.909C69.331 103.626 68.8728 102.503 67.9699 101.6L66.5557 103.014C67.077 103.535 67.331 104.147 67.331 104.909H69.331ZM67.9736 101.603C66.9948 100.614 65.5508 100.227 63.8764 100.227V102.227C65.293 102.227 66.1065 102.56 66.5519 103.01L67.9736 101.603ZM63.8764 100.227H58.5582V102.227H63.8764V100.227ZM57.5582 101.227V108.955H59.5582V101.227H57.5582ZM86.5071 122V123H87.2133L87.4495 122.335L86.5071 122ZM83.5526 122L82.6138 121.655L82.1201 123H83.5526V122ZM92.098 98.7273V97.7273H91.3999L91.1593 98.3826L92.098 98.7273ZM95.0071 98.7273L95.9458 98.3826L95.7052 97.7273H95.0071V98.7273ZM103.553 122V123H104.985L104.491 121.655L103.553 122ZM100.598 122L99.6556 122.335L99.8919 123H100.598V122ZM93.6435 102.409L94.5858 102.075L94.3496 101.409H93.6435V102.409ZM93.4616 102.409V101.409H92.7555L92.5193 102.075L93.4616 102.409ZM87.598 112.909V111.909H86.598V112.909H87.598ZM99.5071 112.909H100.507V111.909H99.5071V112.909ZM99.5071 115.409V116.409H100.507V115.409H99.5071ZM87.598 115.409H86.598V116.409H87.598V115.409ZM86.5071 121H83.5526V123H86.5071V121ZM84.4913 122.345L93.0367 99.072L91.1593 98.3826L82.6138 121.655L84.4913 122.345ZM92.098 99.7273H95.0071V97.7273H92.098V99.7273ZM94.0684 99.072L102.614 122.345L104.491 121.655L95.9458 98.3826L94.0684 99.072ZM103.553 121H100.598V123H103.553V121ZM101.54 121.665L94.5858 102.075L92.7011 102.744L99.6556 122.335L101.54 121.665ZM93.6435 101.409H93.4616V103.409H93.6435V101.409ZM92.5193 102.075L85.5647 121.665L87.4495 122.335L94.404 102.744L92.5193 102.075ZM87.598 113.909H99.5071V111.909H87.598V113.909ZM98.5071 112.909V115.409H100.507V112.909H98.5071ZM99.5071 114.409H87.598V116.409H99.5071V114.409ZM88.598 115.409V112.909H86.598V115.409H88.598ZM125.632 98.7273H126.632V97.7273H125.632V98.7273ZM125.632 122V123H126.632V122H125.632ZM122.905 122L122.083 122.57L122.382 123H122.905V122ZM110.223 103.727L111.045 103.157L110.746 102.727H110.223V103.727ZM109.996 103.727V102.727H108.996V103.727H109.996ZM109.996 122V123H110.996V122H109.996ZM107.178 122H106.178V123H107.178V122ZM107.178 98.7273V97.7273H106.178V98.7273H107.178ZM109.905 98.7273L110.726 98.1567L110.428 97.7273H109.905V98.7273ZM122.632 117.045L121.811 117.616L122.109 118.045H122.632V117.045ZM122.859 117.045V118.045H123.859V117.045H122.859ZM122.859 98.7273V97.7273H121.859V98.7273H122.859ZM124.632 98.7273V122H126.632V98.7273H124.632ZM125.632 121H122.905V123H125.632V121ZM123.726 121.43L111.045 103.157L109.401 104.297L122.083 122.57L123.726 121.43ZM110.223 102.727H109.996V104.727H110.223V102.727ZM108.996 103.727V122H110.996V103.727H108.996ZM109.996 121H107.178V123H109.996V121ZM108.178 122V98.7273H106.178V122H108.178ZM107.178 99.7273H109.905V97.7273H107.178V99.7273ZM109.084 99.2979L121.811 117.616L123.453 116.475L110.726 98.1567L109.084 99.2979ZM122.632 118.045H122.859V116.045H122.632V118.045ZM123.859 117.045V98.7273H121.859V117.045H123.859ZM122.859 99.7273H125.632V97.7273H122.859V99.7273ZM131.271 122H130.271V123H131.271V122ZM131.271 98.7273V97.7273H130.271V98.7273H131.271ZM144.567 100.125L144.065 100.99L144.068 100.992L144.567 100.125ZM148.26 104.114L147.363 104.556L147.364 104.558L148.26 104.114ZM148.249 116.58L149.145 117.024L149.145 117.022L148.249 116.58ZM144.476 120.602L144.967 121.473L144.97 121.471L144.476 120.602ZM134.089 119.5H133.089V120.5H134.089V119.5ZM143.055 118.386L142.549 117.524L143.055 118.386ZM145.896 105.466L144.984 105.876L144.985 105.878L145.896 105.466ZM143.146 102.33L142.63 103.186L142.634 103.188L143.146 102.33ZM134.089 101.227V100.227H133.089V101.227H134.089ZM138.453 121H131.271V123H138.453V121ZM132.271 122V98.7273H130.271V122H132.271ZM131.271 99.7273H138.771V97.7273H131.271V99.7273ZM138.771 99.7273C140.891 99.7273 142.641 100.164 144.065 100.99L145.069 99.26C143.28 98.2225 141.167 97.7273 138.771 97.7273V99.7273ZM144.068 100.992C145.494 101.813 146.591 102.991 147.363 104.556L149.157 103.671C148.217 101.767 146.851 100.286 145.066 99.2583L144.068 100.992ZM147.364 104.558C148.137 106.117 148.544 108.026 148.544 110.318H150.544C150.544 107.793 150.095 105.565 149.156 103.67L147.364 104.558ZM148.544 110.318C148.544 112.625 148.133 114.554 147.352 116.137L149.145 117.022C150.091 115.105 150.544 112.86 150.544 110.318H148.544ZM147.353 116.135C146.575 117.704 145.455 118.895 143.981 119.733L144.97 121.471C146.799 120.431 148.195 118.94 149.145 117.024L147.353 116.135ZM143.984 119.731C142.516 120.56 140.686 121 138.453 121V123C140.947 123 143.133 122.508 144.967 121.473L143.984 119.731ZM134.089 120.5H138.271V118.5H134.089V120.5ZM138.271 120.5C140.319 120.5 142.102 120.105 143.562 119.249L142.549 117.524C141.478 118.152 140.072 118.5 138.271 118.5V120.5ZM143.562 119.249C145.01 118.399 146.092 117.183 146.796 115.629L144.974 114.803C144.436 115.992 143.631 116.889 142.549 117.524L143.562 119.249ZM146.796 115.629C147.489 114.099 147.817 112.319 147.817 110.318H145.817C145.817 112.105 145.523 113.591 144.974 114.803L146.796 115.629ZM147.817 110.318C147.817 108.333 147.493 106.569 146.807 105.054L144.985 105.878C145.527 107.075 145.817 108.545 145.817 110.318H147.817ZM146.808 105.056C146.115 103.515 145.064 102.309 143.658 101.471L142.634 103.188C143.668 103.805 144.45 104.689 144.984 105.876L146.808 105.056ZM143.662 101.473C142.249 100.622 140.54 100.227 138.589 100.227V102.227C140.275 102.227 141.604 102.568 142.63 103.186L143.662 101.473ZM138.589 100.227H134.089V102.227H138.589V100.227ZM133.089 101.227V119.5H135.089V101.227H133.089ZM175.999 104.545L175.006 104.663L175.11 105.545H175.999V104.545ZM174.339 101.864L173.791 102.7L173.791 102.7L174.339 101.864ZM168.067 101.409L167.671 100.491L167.667 100.492L168.067 101.409ZM166.271 102.784L165.468 102.189L165.463 102.196L166.271 102.784ZM166.078 106.375L165.244 106.926L165.249 106.935L165.255 106.943L166.078 106.375ZM167.237 107.477L166.705 108.324L166.715 108.33L167.237 107.477ZM168.714 108.193L168.369 109.132L168.382 109.136L168.714 108.193ZM170.135 108.636L170.395 107.671L170.389 107.669L170.135 108.636ZM172.499 109.273L172.239 110.238L172.245 110.24L172.499 109.273ZM174.521 109.932L174.168 110.867L174.171 110.869L174.521 109.932ZM176.669 111.08L176.089 111.895L176.1 111.902L176.669 111.08ZM178.374 112.92L179.233 112.409L179.233 112.409L178.374 112.92ZM178.055 119.091L177.217 118.546L177.214 118.551L178.055 119.091ZM175.192 121.511L174.762 120.608L174.76 120.609L175.192 121.511ZM166.305 121.602L165.9 122.516L165.902 122.517L166.305 121.602ZM163.442 119.352L162.629 119.935L162.632 119.939L163.442 119.352ZM162.271 116V115H161.197L161.274 116.071L162.271 116ZM165.18 116L166.177 115.914L166.098 115H165.18V116ZM166.067 118.182L165.321 118.849L165.331 118.859L166.067 118.182ZM168.044 119.455L167.712 120.398L167.722 120.401L168.044 119.455ZM173.533 119.341L173.91 120.267L173.917 120.264L173.533 119.341ZM175.567 117.864L176.349 118.486L176.353 118.481L175.567 117.864ZM175.669 113.75L176.416 113.085L176.416 113.085L175.669 113.75ZM173.964 112.568L173.569 113.487L173.569 113.487L173.964 112.568ZM171.68 111.773L171.406 112.734L171.413 112.736L171.68 111.773ZM168.817 110.955L168.54 111.916L168.542 111.916L168.817 110.955ZM164.499 108.716L163.824 109.454L163.824 109.454L164.499 108.716ZM163.964 101.5L163.156 100.911L163.155 100.912L163.964 101.5ZM166.828 99.2273L167.238 100.139L167.241 100.138L166.828 99.2273ZM174.862 99.2159L174.444 100.124L174.448 100.126L174.862 99.2159ZM177.635 101.398L176.83 101.991L176.833 101.996L177.635 101.398ZM178.726 104.545V105.545H179.759L179.725 104.513L178.726 104.545ZM176.992 104.428C176.821 102.983 176.105 101.826 174.888 101.028L173.791 102.7C174.514 103.174 174.904 103.805 175.006 104.663L176.992 104.428ZM174.888 101.028C173.723 100.263 172.333 99.9091 170.771 99.9091V101.909C172.028 101.909 173.016 102.191 173.791 102.7L174.888 101.028ZM170.771 99.9091C169.635 99.9091 168.593 100.093 167.671 100.491L168.463 102.327C169.086 102.059 169.847 101.909 170.771 101.909V99.9091ZM167.667 100.492C166.766 100.885 166.018 101.445 165.468 102.189L167.075 103.379C167.388 102.957 167.837 102.6 168.466 102.326L167.667 100.492ZM165.463 102.196C164.91 102.955 164.635 103.826 164.635 104.773H166.635C166.635 104.235 166.784 103.779 167.08 103.372L165.463 102.196ZM164.635 104.773C164.635 105.558 164.824 106.291 165.244 106.926L166.912 105.824C166.741 105.565 166.635 105.23 166.635 104.773H164.635ZM165.255 106.943C165.638 107.498 166.125 107.959 166.705 108.324L167.77 106.631C167.41 106.405 167.124 106.131 166.901 105.807L165.255 106.943ZM166.715 108.33C167.24 108.652 167.792 108.92 168.369 109.132L169.06 107.255C168.606 107.088 168.173 106.878 167.76 106.625L166.715 108.33ZM168.382 109.136C168.917 109.325 169.417 109.482 169.88 109.603L170.389 107.669C169.989 107.564 169.542 107.425 169.047 107.25L168.382 109.136ZM169.875 109.602L172.239 110.238L172.759 108.307L170.395 107.671L169.875 109.602ZM172.245 110.24C172.81 110.388 173.45 110.596 174.168 110.867L174.875 108.996C174.108 108.707 173.4 108.475 172.752 108.305L172.245 110.24ZM174.171 110.869C174.836 111.117 175.475 111.458 176.09 111.895L177.249 110.265C176.499 109.732 175.706 109.307 174.871 108.995L174.171 110.869ZM176.1 111.902C176.667 112.294 177.138 112.8 177.515 113.432L179.233 112.409C178.715 111.541 178.05 110.819 177.238 110.257L176.1 111.902ZM177.515 113.432C177.849 113.993 178.044 114.727 178.044 115.682H180.044C180.044 114.455 179.792 113.348 179.233 112.409L177.515 113.432ZM178.044 115.682C178.044 116.754 177.766 117.7 177.217 118.546L178.894 119.635C179.663 118.452 180.044 117.125 180.044 115.682H178.044ZM177.214 118.551C176.678 119.386 175.878 120.077 174.762 120.608L175.621 122.414C177.021 121.748 178.13 120.826 178.897 119.631L177.214 118.551ZM174.76 120.609C173.678 121.127 172.315 121.409 170.635 121.409V123.409C172.53 123.409 174.206 123.092 175.624 122.413L174.76 120.609ZM170.635 121.409C169.074 121.409 167.774 121.157 166.709 120.687L165.902 122.517C167.276 123.123 168.863 123.409 170.635 123.409V121.409ZM166.711 120.688C165.641 120.213 164.833 119.569 164.252 118.766L162.632 119.939C163.444 121.06 164.546 121.915 165.9 122.516L166.711 120.688ZM164.255 118.77C163.681 117.97 163.348 117.032 163.269 115.929L161.274 116.071C161.377 117.513 161.824 118.811 162.629 119.935L164.255 118.77ZM162.271 117H165.18V115H162.271V117ZM164.184 116.086C164.276 117.148 164.642 118.089 165.322 118.849L166.812 117.515C166.461 117.123 166.237 116.609 166.177 115.914L164.184 116.086ZM165.331 118.859C165.974 119.558 166.777 120.068 167.712 120.398L168.376 118.511C167.721 118.28 167.205 117.942 166.803 117.505L165.331 118.859ZM167.722 120.401C168.638 120.712 169.611 120.864 170.635 120.864V118.864C169.81 118.864 169.056 118.742 168.366 118.508L167.722 120.401ZM170.635 120.864C171.819 120.864 172.916 120.672 173.91 120.267L173.156 118.415C172.437 118.707 171.602 118.864 170.635 118.864V120.864ZM173.917 120.264C174.905 119.853 175.729 119.266 176.349 118.486L174.784 117.241C174.405 117.718 173.873 118.116 173.149 118.418L173.917 120.264ZM176.353 118.481C176.999 117.66 177.317 116.697 177.317 115.636H175.317C175.317 116.272 175.135 116.795 174.78 117.246L176.353 118.481ZM177.317 115.636C177.317 114.668 177.041 113.787 176.416 113.085L174.922 114.415C175.161 114.683 175.317 115.06 175.317 115.636H177.317ZM176.416 113.085C175.871 112.473 175.174 112 174.36 111.65L173.569 113.487C174.164 113.742 174.604 114.057 174.922 114.415L176.416 113.085ZM174.36 111.65C173.61 111.327 172.805 111.047 171.948 110.809L171.413 112.736C172.192 112.953 172.91 113.203 173.569 113.487L174.36 111.65ZM171.955 110.811L169.091 109.993L168.542 111.916L171.406 112.734L171.955 110.811ZM169.093 109.993C167.378 109.5 166.09 108.816 165.173 107.978L163.824 109.454C165.028 110.555 166.619 111.363 168.54 111.916L169.093 109.993ZM165.173 107.978C164.34 107.216 163.908 106.225 163.908 104.909H161.908C161.908 106.729 162.536 108.276 163.824 109.454L165.173 107.978ZM163.908 104.909C163.908 103.798 164.204 102.872 164.773 102.088L163.155 100.912C162.316 102.068 161.908 103.414 161.908 104.909H163.908ZM164.773 102.089C165.374 101.264 166.186 100.612 167.238 100.139L166.418 98.3151C165.077 98.918 163.979 99.7814 163.156 100.911L164.773 102.089ZM167.241 100.138C168.3 99.6583 169.502 99.4091 170.862 99.4091V97.4091C169.253 97.4091 167.765 97.7053 166.416 98.3163L167.241 100.138ZM170.862 99.4091C172.242 99.4091 173.428 99.656 174.444 100.124L175.281 98.3078C173.963 97.7001 172.483 97.4091 170.862 97.4091V99.4091ZM174.448 100.126C175.478 100.594 176.261 101.22 176.83 101.991L178.44 100.804C177.645 99.7273 176.58 98.898 175.276 98.3055L174.448 100.126ZM176.833 101.996C177.398 102.753 177.695 103.604 177.726 104.578L179.725 104.513C179.681 103.139 179.251 101.891 178.437 100.8L176.833 101.996ZM178.726 103.545H175.999V105.545H178.726V103.545ZM201.984 116.727L201.088 116.283L201.088 116.283L201.984 116.727ZM198.337 120.864L198.868 121.711L198.868 121.711L198.337 120.864ZM187.746 120.864L187.214 121.711L187.214 121.711L187.746 120.864ZM184.098 116.727L184.994 116.283L184.994 116.283L184.098 116.727ZM184.098 104L183.202 103.556L184.098 104ZM198.337 99.8636L198.868 99.0166L198.868 99.0166L198.337 99.8636ZM201.984 104L201.088 104.444L201.088 104.444L201.984 104ZM199.575 105.261L198.674 105.695L198.676 105.699L199.575 105.261ZM196.859 102.114L196.328 102.961L196.331 102.963L196.859 102.114ZM189.212 102.114L188.683 101.265L188.681 101.266L189.212 102.114ZM186.496 105.261L185.596 104.824L185.595 104.828L186.496 105.261ZM186.496 115.466L185.595 115.899L185.596 115.903L186.496 115.466ZM189.212 118.614L188.681 119.461L188.683 119.463L189.212 118.614ZM196.859 118.614L196.331 117.765L196.328 117.766L196.859 118.614ZM199.575 115.466L198.676 115.029L198.674 115.033L199.575 115.466ZM202.314 110.364C202.314 112.699 201.892 114.661 201.088 116.283L202.88 117.171C203.849 115.217 204.314 112.937 204.314 110.364H202.314ZM201.088 116.283C200.276 117.922 199.18 119.154 197.805 120.017L198.868 121.711C200.584 120.634 201.92 119.109 202.88 117.171L201.088 116.283ZM197.805 120.017C196.433 120.878 194.855 121.318 193.041 121.318V123.318C195.197 123.318 197.149 122.789 198.868 121.711L197.805 120.017ZM193.041 121.318C191.227 121.318 189.649 120.878 188.277 120.017L187.214 121.711C188.933 122.789 190.885 123.318 193.041 123.318V121.318ZM188.277 120.017C186.903 119.154 185.806 117.922 184.994 116.283L183.202 117.171C184.162 119.109 185.498 120.634 187.214 121.711L188.277 120.017ZM184.994 116.283C184.19 114.661 183.768 112.699 183.768 110.364H181.768C181.768 112.937 182.233 115.217 183.202 117.171L184.994 116.283ZM183.768 110.364C183.768 108.028 184.19 106.066 184.994 104.444L183.202 103.556C182.233 105.51 181.768 107.79 181.768 110.364H183.768ZM184.994 104.444C185.806 102.806 186.903 101.573 188.277 100.711L187.214 99.0166C185.498 100.093 184.162 101.619 183.202 103.556L184.994 104.444ZM188.277 100.711C189.649 99.8497 191.227 99.4091 193.041 99.4091V97.4091C190.885 97.4091 188.933 97.9382 187.214 99.0166L188.277 100.711ZM193.041 99.4091C194.855 99.4091 196.433 99.8497 197.805 100.711L198.868 99.0166C197.149 97.9382 195.197 97.4091 193.041 97.4091V99.4091ZM197.805 100.711C199.18 101.573 200.276 102.806 201.088 104.444L202.88 103.556C201.92 101.619 200.584 100.093 198.868 99.0166L197.805 100.711ZM201.088 104.444C201.892 106.066 202.314 108.028 202.314 110.364H204.314C204.314 107.79 203.849 105.51 202.88 103.556L201.088 104.444ZM201.587 110.364C201.587 108.242 201.232 106.382 200.475 104.824L198.676 105.699C199.267 106.914 199.587 108.455 199.587 110.364H201.587ZM200.477 104.828C199.74 103.295 198.715 102.091 197.388 101.265L196.331 102.963C197.292 103.561 198.078 104.455 198.674 105.695L200.477 104.828ZM197.39 101.266C196.087 100.449 194.628 100.045 193.041 100.045V102.045C194.272 102.045 195.359 102.354 196.328 102.961L197.39 101.266ZM193.041 100.045C191.454 100.045 189.993 100.449 188.683 101.265L189.74 102.963C190.718 102.354 191.81 102.045 193.041 102.045V100.045ZM188.681 101.266C187.363 102.092 186.34 103.295 185.596 104.824L187.395 105.699C188 104.455 188.788 103.559 189.743 102.961L188.681 101.266ZM185.595 104.828C184.846 106.385 184.496 108.243 184.496 110.364H186.496C186.496 108.454 186.812 106.911 187.397 105.695L185.595 104.828ZM184.496 110.364C184.496 112.484 184.846 114.343 185.595 115.899L187.397 115.033C186.812 113.817 186.496 112.273 186.496 110.364H184.496ZM185.596 115.903C186.34 117.432 187.363 118.635 188.681 119.461L189.743 117.766C188.788 117.168 188 116.272 187.395 115.029L185.596 115.903ZM188.683 119.463C189.993 120.278 191.454 120.682 193.041 120.682V118.682C191.81 118.682 190.718 118.373 189.74 117.765L188.683 119.463ZM193.041 120.682C194.628 120.682 196.087 120.278 197.39 119.461L196.328 117.766C195.359 118.373 194.272 118.682 193.041 118.682V120.682ZM197.388 119.463C198.715 118.636 199.74 117.432 200.477 115.899L198.674 115.033C198.078 116.273 197.292 117.167 196.331 117.765L197.388 119.463ZM200.475 115.903C201.232 114.345 201.587 112.486 201.587 110.364H199.587C199.587 112.272 199.267 113.814 198.676 115.029L200.475 115.903ZM208.053 122H207.053V123H208.053V122ZM208.053 98.7273V97.7273H207.053V98.7273H208.053ZM222.007 98.7273H223.007V97.7273H222.007V98.7273ZM222.007 101.227V102.227H223.007V101.227H222.007ZM210.871 101.227V100.227H209.871V101.227H210.871ZM210.871 109.091H209.871V110.091H210.871V109.091ZM220.962 109.091H221.962V108.091H220.962V109.091ZM220.962 111.591V112.591H221.962V111.591H220.962ZM210.871 111.591V110.591H209.871V111.591H210.871ZM210.871 122V123H211.871V122H210.871ZM209.053 122V98.7273H207.053V122H209.053ZM208.053 99.7273H222.007V97.7273H208.053V99.7273ZM221.007 98.7273V101.227H223.007V98.7273H221.007ZM222.007 100.227H210.871V102.227H222.007V100.227ZM209.871 101.227V109.091H211.871V101.227H209.871ZM210.871 110.091H220.962V108.091H210.871V110.091ZM219.962 109.091V111.591H221.962V109.091H219.962ZM220.962 110.591H210.871V112.591H220.962V110.591ZM209.871 111.591V122H211.871V111.591H209.871ZM210.871 121H208.053V123H210.871V121ZM225.561 101.227H224.561V102.227H225.561V101.227ZM225.561 98.7273V97.7273H224.561V98.7273H225.561ZM243.016 98.7273H244.016V97.7273H243.016V98.7273ZM243.016 101.227V102.227H244.016V101.227H243.016ZM235.697 101.227V100.227H234.697V101.227H235.697ZM235.697 122V123H236.697V122H235.697ZM232.879 122H231.879V123H232.879V122ZM232.879 101.227H233.879V100.227H232.879V101.227ZM226.561 101.227V98.7273H224.561V101.227H226.561ZM225.561 99.7273H243.016V97.7273H225.561V99.7273ZM242.016 98.7273V101.227H244.016V98.7273H242.016ZM243.016 100.227H235.697V102.227H243.016V100.227ZM234.697 101.227V122H236.697V101.227H234.697ZM235.697 121H232.879V123H235.697V121ZM233.879 122V101.227H231.879V122H233.879ZM232.879 100.227H225.561V102.227H232.879V100.227ZM251.592 122L250.628 122.264L250.829 123H251.592V122ZM245.229 98.7273V97.7273H243.919L244.264 98.991L245.229 98.7273ZM248.092 98.7273L249.061 98.4787L248.868 97.7273H248.092V98.7273ZM252.956 117.682L251.987 117.93L252.18 118.682H252.956V117.682ZM253.183 117.682V118.682H253.955L254.151 117.935L253.183 117.682ZM258.138 98.7273V97.7273H257.366L257.17 98.4744L258.138 98.7273ZM261.32 98.7273L262.287 98.4744L262.092 97.7273H261.32V98.7273ZM266.274 117.682L265.307 117.935L265.502 118.682H266.274V117.682ZM266.501 117.682V118.682H267.277L267.47 117.93L266.501 117.682ZM271.365 98.7273V97.7273H270.589L270.396 98.4787L271.365 98.7273ZM274.229 98.7273L275.193 98.991L275.539 97.7273H274.229V98.7273ZM267.865 122V123H268.628L268.83 122.264L267.865 122ZM264.956 122L263.992 122.267L264.195 123H264.956V122ZM259.82 103.455L260.783 103.188L260.58 102.455H259.82V103.455ZM259.638 103.455V102.455H258.877L258.674 103.188L259.638 103.455ZM254.501 122V123H255.262L255.465 122.267L254.501 122ZM252.557 121.736L246.193 98.4635L244.264 98.991L250.628 122.264L252.557 121.736ZM245.229 99.7273H248.092V97.7273H245.229V99.7273ZM247.124 98.9758L251.987 117.93L253.925 117.433L249.061 98.4787L247.124 98.9758ZM252.956 118.682H253.183V116.682H252.956V118.682ZM254.151 117.935L259.105 98.9802L257.17 98.4744L252.216 117.429L254.151 117.935ZM258.138 99.7273H261.32V97.7273H258.138V99.7273ZM260.352 98.9802L265.307 117.935L267.242 117.429L262.287 98.4744L260.352 98.9802ZM266.274 118.682H266.501V116.682H266.274V118.682ZM267.47 117.93L272.334 98.9758L270.396 98.4787L265.533 117.433L267.47 117.93ZM271.365 99.7273H274.229V97.7273H271.365V99.7273ZM273.264 98.4635L266.9 121.736L268.83 122.264L275.193 98.991L273.264 98.4635ZM267.865 121H264.956V123H267.865V121ZM265.92 121.733L260.783 103.188L258.856 103.721L263.992 122.267L265.92 121.733ZM259.82 102.455H259.638V104.455H259.82V102.455ZM258.674 103.188L253.538 121.733L255.465 122.267L260.602 103.721L258.674 103.188ZM254.501 121H251.592V123H254.501V121ZM276.882 122V123H277.588L277.824 122.335L276.882 122ZM273.928 122L272.989 121.655L272.495 123H273.928V122ZM282.473 98.7273V97.7273H281.775L281.534 98.3826L282.473 98.7273ZM285.382 98.7273L286.321 98.3826L286.08 97.7273H285.382V98.7273ZM293.928 122V123H295.36L294.866 121.655L293.928 122ZM290.973 122L290.031 122.335L290.267 123H290.973V122ZM284.018 102.409L284.961 102.075L284.725 101.409H284.018V102.409ZM283.837 102.409V101.409H283.13L282.894 102.075L283.837 102.409ZM277.973 112.909V111.909H276.973V112.909H277.973ZM289.882 112.909H290.882V111.909H289.882V112.909ZM289.882 115.409V116.409H290.882V115.409H289.882ZM277.973 115.409H276.973V116.409H277.973V115.409ZM276.882 121H273.928V123H276.882V121ZM274.866 122.345L283.412 99.072L281.534 98.3826L272.989 121.655L274.866 122.345ZM282.473 99.7273H285.382V97.7273H282.473V99.7273ZM284.443 99.072L292.989 122.345L294.866 121.655L286.321 98.3826L284.443 99.072ZM293.928 121H290.973V123H293.928V121ZM291.915 121.665L284.961 102.075L283.076 102.744L290.031 122.335L291.915 121.665ZM284.018 101.409H283.837V103.409H284.018V101.409ZM282.894 102.075L275.94 121.665L277.824 122.335L284.779 102.744L282.894 102.075ZM277.973 113.909H289.882V111.909H277.973V113.909ZM288.882 112.909V115.409H290.882V112.909H288.882ZM289.882 114.409H277.973V116.409H289.882V114.409ZM278.973 115.409V112.909H276.973V115.409H278.973ZM297.553 122H296.553V123H297.553V122ZM297.553 98.7273V97.7273H296.553V98.7273H297.553ZM309.893 99.6591L309.423 100.542L309.428 100.544L309.893 99.6591ZM312.484 102.193L311.598 102.655L311.598 102.655L312.484 102.193ZM312.484 109.511L311.6 109.044L311.6 109.044L312.484 109.511ZM309.905 112.011L310.364 112.9L310.368 112.898L309.905 112.011ZM299.098 112.909H298.098V113.909H299.098V112.909ZM299.098 110.364V109.364H298.098V110.364H299.098ZM308.371 109.818L307.941 108.915L307.938 108.917L308.371 109.818ZM310.03 108.273L309.141 107.814L309.139 107.817L310.03 108.273ZM308.359 101.807L307.909 102.699L307.916 102.703L308.359 101.807ZM300.371 101.227V100.227H299.371V101.227H300.371ZM300.371 122V123H301.371V122H300.371ZM308.507 111.545L309.384 111.065L309.1 110.545H308.507V111.545ZM314.234 122V123H315.922L315.111 121.52L314.234 122ZM310.962 122L310.081 122.475L310.365 123H310.962V122ZM305.325 111.545V110.545H303.65L304.445 112.02L305.325 111.545ZM298.553 122V98.7273H296.553V122H298.553ZM297.553 99.7273H305.416V97.7273H297.553V99.7273ZM305.416 99.7273C307.129 99.7273 308.446 100.021 309.423 100.542L310.363 98.7764C309.008 98.0547 307.34 97.7273 305.416 97.7273V99.7273ZM309.428 100.544C310.431 101.072 311.139 101.776 311.598 102.655L313.371 101.731C312.708 100.459 311.689 99.4738 310.359 98.774L309.428 100.544ZM311.598 102.655C312.075 103.571 312.325 104.632 312.325 105.864H314.325C314.325 104.353 314.015 102.967 313.371 101.731L311.598 102.655ZM312.325 105.864C312.325 107.095 312.075 108.147 311.6 109.044L313.368 109.979C314.015 108.755 314.325 107.374 314.325 105.864H312.325ZM311.6 109.044C311.143 109.909 310.438 110.604 309.441 111.125L310.368 112.898C311.69 112.207 312.705 111.234 313.368 109.979L311.6 109.044ZM309.446 111.123C308.472 111.626 307.163 111.909 305.462 111.909V113.909C307.367 113.909 309.019 113.594 310.364 112.9L309.446 111.123ZM305.462 111.909H299.098V113.909H305.462V111.909ZM300.098 112.909V110.364H298.098V112.909H300.098ZM299.098 111.364H305.371V109.364H299.098V111.364ZM305.371 111.364C306.697 111.364 307.862 111.172 308.803 110.72L307.938 108.917C307.364 109.192 306.529 109.364 305.371 109.364V111.364ZM308.8 110.721C309.737 110.276 310.466 109.616 310.92 108.728L309.139 107.817C308.912 108.263 308.535 108.633 307.942 108.915L308.8 110.721ZM310.918 108.732C311.355 107.887 311.553 106.919 311.553 105.864H309.553C309.553 106.672 309.402 107.31 309.141 107.814L310.918 108.732ZM311.553 105.864C311.553 104.807 311.354 103.834 310.924 102.973L309.135 103.868C309.402 104.401 309.553 105.057 309.553 105.864H311.553ZM310.924 102.973C310.469 102.063 309.744 101.376 308.803 100.911L307.916 102.703C308.505 102.995 308.894 103.384 309.135 103.868L310.924 102.973ZM308.81 100.914C307.855 100.432 306.672 100.227 305.325 100.227V102.227C306.494 102.227 307.333 102.409 307.909 102.699L308.81 100.914ZM305.325 100.227H300.371V102.227H305.325V100.227ZM299.371 101.227V122H301.371V101.227H299.371ZM300.371 121H297.553V123H300.371V121ZM307.63 112.026L313.357 122.48L315.111 121.52L309.384 111.065L307.63 112.026ZM314.234 121H310.962V123H314.234V121ZM311.842 121.525L306.206 111.071L304.445 112.02L310.081 122.475L311.842 121.525ZM305.325 112.545H308.507V110.545H305.325V112.545ZM318.021 122H317.021V123H318.021V122ZM318.021 98.7273V97.7273H317.021V98.7273H318.021ZM332.067 98.7273H333.067V97.7273H332.067V98.7273ZM332.067 101.227V102.227H333.067V101.227H332.067ZM320.839 101.227V100.227H319.839V101.227H320.839ZM320.839 109.091H319.839V110.091H320.839V109.091ZM331.339 109.091H332.339V108.091H331.339V109.091ZM331.339 111.591V112.591H332.339V111.591H331.339ZM320.839 111.591V110.591H319.839V111.591H320.839ZM320.839 119.5H319.839V120.5H320.839V119.5ZM332.249 119.5H333.249V118.5H332.249V119.5ZM332.249 122V123H333.249V122H332.249ZM319.021 122V98.7273H317.021V122H319.021ZM318.021 99.7273H332.067V97.7273H318.021V99.7273ZM331.067 98.7273V101.227H333.067V98.7273H331.067ZM332.067 100.227H320.839V102.227H332.067V100.227ZM319.839 101.227V109.091H321.839V101.227H319.839ZM320.839 110.091H331.339V108.091H320.839V110.091ZM330.339 109.091V111.591H332.339V109.091H330.339ZM331.339 110.591H320.839V112.591H331.339V110.591ZM319.839 111.591V119.5H321.839V111.591H319.839ZM320.839 120.5H332.249V118.5H320.839V120.5ZM331.249 119.5V122H333.249V119.5H331.249ZM332.249 121H318.021V123H332.249V121ZM346.146 122H345.146V123H346.146V122ZM346.146 98.7273V97.7273H345.146V98.7273H346.146ZM359.442 100.125L358.94 100.99L358.943 100.992L359.442 100.125ZM363.135 104.114L362.238 104.556L362.239 104.558L363.135 104.114ZM363.124 116.58L364.02 117.024L364.02 117.022L363.124 116.58ZM359.351 120.602L359.842 121.473L359.845 121.471L359.351 120.602ZM348.964 119.5H347.964V120.5H348.964V119.5ZM357.93 118.386L357.424 117.524L357.93 118.386ZM360.771 105.466L359.859 105.876L359.86 105.878L360.771 105.466ZM358.021 102.33L357.505 103.186L357.509 103.188L358.021 102.33ZM348.964 101.227V100.227H347.964V101.227H348.964ZM353.328 121H346.146V123H353.328V121ZM347.146 122V98.7273H345.146V122H347.146ZM346.146 99.7273H353.646V97.7273H346.146V99.7273ZM353.646 99.7273C355.766 99.7273 357.516 100.164 358.94 100.99L359.944 99.26C358.155 98.2225 356.042 97.7273 353.646 97.7273V99.7273ZM358.943 100.992C360.369 101.813 361.466 102.991 362.238 104.556L364.032 103.671C363.092 101.767 361.726 100.286 359.941 99.2583L358.943 100.992ZM362.239 104.558C363.012 106.117 363.419 108.026 363.419 110.318H365.419C365.419 107.793 364.97 105.565 364.031 103.67L362.239 104.558ZM363.419 110.318C363.419 112.625 363.008 114.554 362.227 116.137L364.02 117.022C364.966 115.105 365.419 112.86 365.419 110.318H363.419ZM362.228 116.135C361.45 117.704 360.33 118.895 358.856 119.733L359.845 121.471C361.674 120.431 363.07 118.94 364.02 117.024L362.228 116.135ZM358.859 119.731C357.391 120.56 355.561 121 353.328 121V123C355.822 123 358.008 122.508 359.842 121.473L358.859 119.731ZM348.964 120.5H353.146V118.5H348.964V120.5ZM353.146 120.5C355.194 120.5 356.977 120.105 358.437 119.249L357.424 117.524C356.353 118.152 354.947 118.5 353.146 118.5V120.5ZM358.437 119.249C359.885 118.399 360.967 117.183 361.671 115.629L359.849 114.803C359.311 115.992 358.506 116.889 357.424 117.524L358.437 119.249ZM361.671 115.629C362.364 114.099 362.692 112.319 362.692 110.318H360.692C360.692 112.105 360.398 113.591 359.849 114.803L361.671 115.629ZM362.692 110.318C362.692 108.333 362.368 106.569 361.682 105.054L359.86 105.878C360.402 107.075 360.692 108.545 360.692 110.318H362.692ZM361.683 105.056C360.99 103.515 359.939 102.309 358.533 101.471L357.509 103.188C358.543 103.805 359.325 104.689 359.859 105.876L361.683 105.056ZM358.537 101.473C357.124 100.622 355.415 100.227 353.464 100.227V102.227C355.15 102.227 356.479 102.568 357.505 103.186L358.537 101.473ZM353.464 100.227H348.964V102.227H353.464V100.227ZM347.964 101.227V119.5H349.964V101.227H347.964ZM369.146 122H368.146V123H369.146V122ZM369.146 98.7273V97.7273H368.146V98.7273H369.146ZM383.192 98.7273H384.192V97.7273H383.192V98.7273ZM383.192 101.227V102.227H384.192V101.227H383.192ZM371.964 101.227V100.227H370.964V101.227H371.964ZM371.964 109.091H370.964V110.091H371.964V109.091ZM382.464 109.091H383.464V108.091H382.464V109.091ZM382.464 111.591V112.591H383.464V111.591H382.464ZM371.964 111.591V110.591H370.964V111.591H371.964ZM371.964 119.5H370.964V120.5H371.964V119.5ZM383.374 119.5H384.374V118.5H383.374V119.5ZM383.374 122V123H384.374V122H383.374ZM370.146 122V98.7273H368.146V122H370.146ZM369.146 99.7273H383.192V97.7273H369.146V99.7273ZM382.192 98.7273V101.227H384.192V98.7273H382.192ZM383.192 100.227H371.964V102.227H383.192V100.227ZM370.964 101.227V109.091H372.964V101.227H370.964ZM371.964 110.091H382.464V108.091H371.964V110.091ZM381.464 109.091V111.591H383.464V109.091H381.464ZM382.464 110.591H371.964V112.591H382.464V110.591ZM370.964 111.591V119.5H372.964V111.591H370.964ZM371.964 120.5H383.374V118.5H371.964V120.5ZM382.374 119.5V122H384.374V119.5H382.374ZM383.374 121H369.146V123H383.374V121ZM389.226 98.7273L390.169 98.3947L389.934 97.7273H389.226V98.7273ZM396.135 118.318L395.192 118.651L395.427 119.318H396.135V118.318ZM396.408 118.318V119.318H397.115L397.351 118.651L396.408 118.318ZM403.317 98.7273V97.7273H402.609L402.374 98.3947L403.317 98.7273ZM406.271 98.7273L407.21 99.072L407.704 97.7273H406.271V98.7273ZM397.726 122V123H398.424L398.665 122.345L397.726 122ZM394.817 122L393.878 122.345L394.119 123H394.817V122ZM386.271 98.7273V97.7273H384.839L385.333 99.072L386.271 98.7273ZM388.283 99.0599L395.192 118.651L397.078 117.986L390.169 98.3947L388.283 99.0599ZM396.135 119.318H396.408V117.318H396.135V119.318ZM397.351 118.651L404.26 99.0599L402.374 98.3947L395.465 117.986L397.351 118.651ZM403.317 99.7273H406.271V97.7273H403.317V99.7273ZM405.333 98.3826L396.787 121.655L398.665 122.345L407.21 99.072L405.333 98.3826ZM397.726 121H394.817V123H397.726V121ZM395.755 121.655L387.21 98.3826L385.333 99.072L393.878 122.345L395.755 121.655ZM386.271 99.7273H389.226V97.7273H386.271V99.7273ZM409.896 122H408.896V123H409.896V122ZM409.896 98.7273V97.7273H408.896V98.7273H409.896ZM423.942 98.7273H424.942V97.7273H423.942V98.7273ZM423.942 101.227V102.227H424.942V101.227H423.942ZM412.714 101.227V100.227H411.714V101.227H412.714ZM412.714 109.091H411.714V110.091H412.714V109.091ZM423.214 109.091H424.214V108.091H423.214V109.091ZM423.214 111.591V112.591H424.214V111.591H423.214ZM412.714 111.591V110.591H411.714V111.591H412.714ZM412.714 119.5H411.714V120.5H412.714V119.5ZM424.124 119.5H425.124V118.5H424.124V119.5ZM424.124 122V123H425.124V122H424.124ZM410.896 122V98.7273H408.896V122H410.896ZM409.896 99.7273H423.942V97.7273H409.896V99.7273ZM422.942 98.7273V101.227H424.942V98.7273H422.942ZM423.942 100.227H412.714V102.227H423.942V100.227ZM411.714 101.227V109.091H413.714V101.227H411.714ZM412.714 110.091H423.214V108.091H412.714V110.091ZM422.214 109.091V111.591H424.214V109.091H422.214ZM423.214 110.591H412.714V112.591H423.214V110.591ZM411.714 111.591V119.5H413.714V111.591H411.714ZM412.714 120.5H424.124V118.5H412.714V120.5ZM423.124 119.5V122H425.124V119.5H423.124ZM424.124 121H409.896V123H424.124V121ZM429.021 122H428.021V123H429.021V122ZM429.021 98.7273V97.7273H428.021V98.7273H429.021ZM431.839 98.7273H432.839V97.7273H431.839V98.7273ZM431.839 119.5H430.839V120.5H431.839V119.5ZM442.658 119.5H443.658V118.5H442.658V119.5ZM442.658 122V123H443.658V122H442.658ZM430.021 122V98.7273H428.021V122H430.021ZM429.021 99.7273H431.839V97.7273H429.021V99.7273ZM430.839 98.7273V119.5H432.839V98.7273H430.839ZM431.839 120.5H442.658V118.5H431.839V120.5ZM441.658 119.5V122H443.658V119.5H441.658ZM442.658 121H429.021V123H442.658V121ZM464.422 116.727L463.526 116.283L463.526 116.283L464.422 116.727ZM460.774 120.864L461.306 121.711L461.306 121.711L460.774 120.864ZM450.183 120.864L449.652 121.711L449.652 121.711L450.183 120.864ZM446.536 116.727L447.431 116.283L447.431 116.283L446.536 116.727ZM446.536 104L445.64 103.556L446.536 104ZM460.774 99.8636L461.306 99.0166L461.306 99.0166L460.774 99.8636ZM464.422 104L463.526 104.444L463.526 104.444L464.422 104ZM462.013 105.261L461.112 105.695L461.113 105.699L462.013 105.261ZM459.297 102.114L458.766 102.961L458.768 102.963L459.297 102.114ZM451.649 102.114L451.121 101.265L451.118 101.266L451.649 102.114ZM448.933 105.261L448.034 104.824L448.032 104.828L448.933 105.261ZM448.933 115.466L448.032 115.899L448.034 115.903L448.933 115.466ZM451.649 118.614L451.118 119.461L451.121 119.463L451.649 118.614ZM459.297 118.614L458.768 117.765L458.766 117.766L459.297 118.614ZM462.013 115.466L461.113 115.029L461.112 115.033L462.013 115.466ZM464.751 110.364C464.751 112.699 464.33 114.661 463.526 116.283L465.318 117.171C466.287 115.217 466.751 112.937 466.751 110.364H464.751ZM463.526 116.283C462.714 117.922 461.617 119.154 460.243 120.017L461.306 121.711C463.022 120.634 464.357 119.109 465.318 117.171L463.526 116.283ZM460.243 120.017C458.87 120.878 457.293 121.318 455.479 121.318V123.318C457.634 123.318 459.587 122.789 461.306 121.711L460.243 120.017ZM455.479 121.318C453.665 121.318 452.087 120.878 450.715 120.017L449.652 121.711C451.37 122.789 453.323 123.318 455.479 123.318V121.318ZM450.715 120.017C449.34 119.154 448.244 117.922 447.431 116.283L445.64 117.171C446.6 119.109 447.935 120.634 449.652 121.711L450.715 120.017ZM447.431 116.283C446.627 114.661 446.206 112.699 446.206 110.364H444.206C444.206 112.937 444.671 115.217 445.64 117.171L447.431 116.283ZM446.206 110.364C446.206 108.028 446.627 106.066 447.431 104.444L445.64 103.556C444.671 105.51 444.206 107.79 444.206 110.364H446.206ZM447.431 104.444C448.244 102.806 449.34 101.573 450.715 100.711L449.652 99.0166C447.935 100.093 446.6 101.619 445.64 103.556L447.431 104.444ZM450.715 100.711C452.087 99.8497 453.665 99.4091 455.479 99.4091V97.4091C453.323 97.4091 451.37 97.9382 449.652 99.0166L450.715 100.711ZM455.479 99.4091C457.293 99.4091 458.87 99.8497 460.243 100.711L461.306 99.0166C459.587 97.9382 457.634 97.4091 455.479 97.4091V99.4091ZM460.243 100.711C461.617 101.573 462.714 102.806 463.526 104.444L465.318 103.556C464.357 101.619 463.022 100.093 461.306 99.0166L460.243 100.711ZM463.526 104.444C464.33 106.066 464.751 108.028 464.751 110.364H466.751C466.751 107.79 466.287 105.51 465.318 103.556L463.526 104.444ZM464.024 110.364C464.024 108.242 463.67 106.382 462.912 104.824L461.113 105.699C461.704 106.914 462.024 108.455 462.024 110.364H464.024ZM462.914 104.828C462.177 103.295 461.152 102.091 459.825 101.265L458.768 102.963C459.729 103.561 460.515 104.455 461.112 105.695L462.914 104.828ZM459.828 101.266C458.524 100.449 457.066 100.045 455.479 100.045V102.045C456.71 102.045 457.797 102.354 458.766 102.961L459.828 101.266ZM455.479 100.045C453.892 100.045 452.431 100.449 451.121 101.265L452.178 102.963C453.156 102.354 454.247 102.045 455.479 102.045V100.045ZM451.118 101.266C449.8 102.092 448.778 103.295 448.034 104.824L449.833 105.699C450.437 104.455 451.225 103.559 452.18 102.961L451.118 101.266ZM448.032 104.828C447.283 106.385 446.933 108.243 446.933 110.364H448.933C448.933 108.454 449.25 106.911 449.834 105.695L448.032 104.828ZM446.933 110.364C446.933 112.484 447.283 114.343 448.032 115.899L449.834 115.033C449.25 113.817 448.933 112.273 448.933 110.364H446.933ZM448.034 115.903C448.778 117.432 449.8 118.635 451.118 119.461L452.18 117.766C451.225 117.168 450.437 116.272 449.833 115.029L448.034 115.903ZM451.121 119.463C452.431 120.278 453.892 120.682 455.479 120.682V118.682C454.247 118.682 453.156 118.373 452.178 117.765L451.121 119.463ZM455.479 120.682C457.066 120.682 458.524 120.278 459.828 119.461L458.766 117.766C457.797 118.373 456.71 118.682 455.479 118.682V120.682ZM459.825 119.463C461.152 118.636 462.177 117.432 462.914 115.899L461.112 115.033C460.515 116.273 459.729 117.167 458.768 117.765L459.825 119.463ZM462.912 115.903C463.67 114.345 464.024 112.486 464.024 110.364H462.024C462.024 112.272 461.704 113.814 461.113 115.029L462.912 115.903ZM470.49 122H469.49V123H470.49V122ZM470.49 98.7273V97.7273H469.49V98.7273H470.49ZM482.831 99.7159L482.337 100.585L482.343 100.589L482.831 99.7159ZM485.422 102.364L484.529 102.813L484.529 102.813L485.422 102.364ZM485.422 109.83L484.527 109.382L484.525 109.387L485.422 109.83ZM482.854 112.511L483.348 113.381L483.352 113.378L482.854 112.511ZM472.763 113.5H471.763V114.5H472.763V113.5ZM472.763 111V110H471.763V111H472.763ZM481.32 110.352L480.824 109.483L480.824 109.483L481.32 110.352ZM482.967 108.602L482.062 108.177L482.06 108.181L482.967 108.602ZM482.967 103.591L482.06 104.012L482.064 104.019L482.967 103.591ZM481.308 101.864L480.823 102.738L480.83 102.742L481.308 101.864ZM473.308 101.227V100.227H472.308V101.227H473.308ZM473.308 122V123H474.308V122H473.308ZM471.49 122V98.7273H469.49V122H471.49ZM470.49 99.7273H478.354V97.7273H470.49V99.7273ZM478.354 99.7273C480.067 99.7273 481.374 100.038 482.337 100.585L483.325 98.8466C481.97 98.076 480.292 97.7273 478.354 97.7273V99.7273ZM482.343 100.589C483.349 101.15 484.064 101.891 484.529 102.813L486.315 101.914C485.658 100.609 484.647 99.5844 483.319 98.8428L482.343 100.589ZM484.529 102.813C485.012 103.774 485.263 104.86 485.263 106.091H487.263C487.263 104.579 486.953 103.181 486.315 101.914L484.529 102.813ZM485.263 106.091C485.263 107.322 485.012 108.413 484.527 109.382L486.316 110.277C486.953 109.004 487.263 107.603 487.263 106.091H485.263ZM484.525 109.387C484.066 110.318 483.355 111.07 482.355 111.645L483.352 113.378C484.671 112.62 485.672 111.584 486.319 110.272L484.525 109.387ZM482.359 111.642C481.395 112.19 480.096 112.5 478.399 112.5V114.5C480.324 114.5 481.994 114.151 483.348 113.381L482.359 111.642ZM478.399 112.5H472.763V114.5H478.399V112.5ZM473.763 113.5V111H471.763V113.5H473.763ZM472.763 112H478.308V110H472.763V112ZM478.308 112C479.661 112 480.855 111.768 481.815 111.221L480.824 109.483C480.269 109.8 479.455 110 478.308 110V112ZM481.815 111.221C482.738 110.695 483.439 109.961 483.874 109.023L482.06 108.181C481.814 108.713 481.416 109.146 480.824 109.483L481.815 111.221ZM483.873 109.027C484.291 108.135 484.49 107.15 484.49 106.091H482.49C482.49 106.896 482.34 107.585 482.062 108.177L483.873 109.027ZM484.49 106.091C484.49 105.032 484.292 104.049 483.871 103.162L482.064 104.019C482.34 104.602 482.49 105.286 482.49 106.091H484.49ZM483.874 103.17C483.436 102.226 482.725 101.496 481.786 100.985L480.83 102.742C481.422 103.064 481.816 103.486 482.06 104.012L483.874 103.17ZM481.793 100.989C480.828 100.454 479.627 100.227 478.263 100.227V102.227C479.429 102.227 480.258 102.425 480.823 102.738L481.793 100.989ZM478.263 100.227H473.308V102.227H478.263V100.227ZM472.308 101.227V122H474.308V101.227H472.308ZM473.308 121H470.49V123H473.308V121ZM490.803 122H489.803V123H490.803V122ZM490.803 98.7273V97.7273H489.803V98.7273H490.803ZM504.848 98.7273H505.848V97.7273H504.848V98.7273ZM504.848 101.227V102.227H505.848V101.227H504.848ZM493.621 101.227V100.227H492.621V101.227H493.621ZM493.621 109.091H492.621V110.091H493.621V109.091ZM504.121 109.091H505.121V108.091H504.121V109.091ZM504.121 111.591V112.591H505.121V111.591H504.121ZM493.621 111.591V110.591H492.621V111.591H493.621ZM493.621 119.5H492.621V120.5H493.621V119.5ZM505.03 119.5H506.03V118.5H505.03V119.5ZM505.03 122V123H506.03V122H505.03ZM491.803 122V98.7273H489.803V122H491.803ZM490.803 99.7273H504.848V97.7273H490.803V99.7273ZM503.848 98.7273V101.227H505.848V98.7273H503.848ZM504.848 100.227H493.621V102.227H504.848V100.227ZM492.621 101.227V109.091H494.621V101.227H492.621ZM493.621 110.091H504.121V108.091H493.621V110.091ZM503.121 109.091V111.591H505.121V109.091H503.121ZM504.121 110.591H493.621V112.591H504.121V110.591ZM492.621 111.591V119.5H494.621V111.591H492.621ZM493.621 120.5H505.03V118.5H493.621V120.5ZM504.03 119.5V122H506.03V119.5H504.03ZM505.03 121H490.803V123H505.03V121ZM509.928 122H508.928V123H509.928V122ZM509.928 98.7273V97.7273H508.928V98.7273H509.928ZM522.268 99.6591L521.798 100.542L521.803 100.544L522.268 99.6591ZM524.859 102.193L523.973 102.655L523.973 102.655L524.859 102.193ZM524.859 109.511L523.975 109.044L523.975 109.044L524.859 109.511ZM522.28 112.011L522.739 112.9L522.743 112.898L522.28 112.011ZM511.473 112.909H510.473V113.909H511.473V112.909ZM511.473 110.364V109.364H510.473V110.364H511.473ZM520.746 109.818L520.316 108.915L520.313 108.917L520.746 109.818ZM522.405 108.273L521.516 107.814L521.514 107.817L522.405 108.273ZM520.734 101.807L520.284 102.699L520.291 102.703L520.734 101.807ZM512.746 101.227V100.227H511.746V101.227H512.746ZM512.746 122V123H513.746V122H512.746ZM520.882 111.545L521.759 111.065L521.475 110.545H520.882V111.545ZM526.609 122V123H528.297L527.486 121.52L526.609 122ZM523.337 122L522.456 122.475L522.74 123H523.337V122ZM517.7 111.545V110.545H516.025L516.82 112.02L517.7 111.545ZM510.928 122V98.7273H508.928V122H510.928ZM509.928 99.7273H517.791V97.7273H509.928V99.7273ZM517.791 99.7273C519.504 99.7273 520.821 100.021 521.798 100.542L522.738 98.7764C521.383 98.0547 519.715 97.7273 517.791 97.7273V99.7273ZM521.803 100.544C522.806 101.072 523.514 101.776 523.973 102.655L525.746 101.731C525.083 100.459 524.064 99.4738 522.734 98.774L521.803 100.544ZM523.973 102.655C524.45 103.571 524.7 104.632 524.7 105.864H526.7C526.7 104.353 526.39 102.967 525.746 101.731L523.973 102.655ZM524.7 105.864C524.7 107.095 524.45 108.147 523.975 109.044L525.743 109.979C526.39 108.755 526.7 107.374 526.7 105.864H524.7ZM523.975 109.044C523.518 109.909 522.813 110.604 521.816 111.125L522.743 112.898C524.065 112.207 525.08 111.234 525.743 109.979L523.975 109.044ZM521.821 111.123C520.847 111.626 519.538 111.909 517.837 111.909V113.909C519.742 113.909 521.394 113.594 522.739 112.9L521.821 111.123ZM517.837 111.909H511.473V113.909H517.837V111.909ZM512.473 112.909V110.364H510.473V112.909H512.473ZM511.473 111.364H517.746V109.364H511.473V111.364ZM517.746 111.364C519.072 111.364 520.237 111.172 521.178 110.72L520.313 108.917C519.739 109.192 518.904 109.364 517.746 109.364V111.364ZM521.175 110.721C522.112 110.276 522.841 109.616 523.295 108.728L521.514 107.817C521.287 108.263 520.91 108.633 520.317 108.915L521.175 110.721ZM523.293 108.732C523.73 107.887 523.928 106.919 523.928 105.864H521.928C521.928 106.672 521.777 107.31 521.516 107.814L523.293 108.732ZM523.928 105.864C523.928 104.807 523.729 103.834 523.299 102.973L521.51 103.868C521.777 104.401 521.928 105.057 521.928 105.864H523.928ZM523.299 102.973C522.844 102.063 522.119 101.376 521.178 100.911L520.291 102.703C520.88 102.995 521.269 103.384 521.51 103.868L523.299 102.973ZM521.185 100.914C520.23 100.432 519.047 100.227 517.7 100.227V102.227C518.869 102.227 519.708 102.409 520.284 102.699L521.185 100.914ZM517.7 100.227H512.746V102.227H517.7V100.227ZM511.746 101.227V122H513.746V101.227H511.746ZM512.746 121H509.928V123H512.746V121ZM520.005 112.026L525.732 122.48L527.486 121.52L521.759 111.065L520.005 112.026ZM526.609 121H523.337V123H526.609V121ZM524.217 121.525L518.581 111.071L516.82 112.02L522.456 122.475L524.217 121.525ZM517.7 112.545H520.882V110.545H517.7V112.545Z" fill="black"/>
<defs>
<filter id="filter0_i_1_20" x="41.422" y="0.5" width="452.767" height="78.5242" filterUnits="userSpaceOnUse" color-interpolation-filters="sRGB">
<feFlood flood-opacity="0" result="BackgroundImageFix"/>
<feBlend mode="normal" in="SourceGraphic" in2="BackgroundImageFix" result="shape"/>
<feColorMatrix in="SourceAlpha" type="matrix" values="0 0 0 0 0 0 0 0 0 0 0 0 0 0 0 0 0 0 127 0" result="hardAlpha"/>
<feOffset dy="7"/>
<feComposite in2="hardAlpha" operator="arithmetic" k2="-1" k3="1"/>
<feColorMatrix type="matrix" values="0 0 0 0 1 0 0 0 0 1 0 0 0 0 1 0 0 0 0.5 0"/>
<feBlend mode="normal" in2="shape" result="effect1_innerShadow_1_20"/>
</filter>
<linearGradient id="paint0_linear_1_20" x1="267.5" y1="2" x2="267.5" y2="75.5" gradientUnits="userSpaceOnUse">
<stop offset="0.255208" stop-color="#DE7474"/>
<stop offset="0.333333" stop-color="#74DE7E"/>
<stop offset="0.71875" stop-color="#74C5DE"/>
<stop offset="0.78125" stop-color="#8974DE"/>
</linearGradient>
</defs>
</svg>
